<?xml version="1.0" encoding="UTF-8" standalone="no"?>
<svg
   width="14"
   height="14"
   viewBox="0 0 14 14"
   fill="none"
   version="1.1"
   id="svg51"
   xmlns="http://www.w3.org/2000/svg"
   xmlns:svg="http://www.w3.org/2000/svg">
  <defs
     id="defs55" />
  <path
     style="color:#000000;fill:#000000;stroke-linecap:round;stroke-linejoin:round;-inkscape-stroke:none"
     d="m 9.4902344,-0.00195313 c -0.330021,10e-9 -0.6562962,0.06644174 -0.9609375,0.19335938 -0.3038043,0.1265689 -0.5804965,0.31152416 -0.8125,0.54492187 L 1.375,7.0976562 a 0.50005,0.50005 0 0 0 -0.00195,0.00195 c -0.55793098,0.5666836 -0.87109378,1.3297418 -0.87109378,2.125 0,0.7952586 0.3131789,1.5602616 0.87109378,2.1269536 l 1.78125,1.808593 c 0.2771373,0.282039 0.607989,0.507047 0.9726562,0.660157 0.3651352,0.153185 0.756308,0.232421 1.1523438,0.232421 0.3960438,0 0.7891653,-0.07924 1.1542968,-0.232421 0.3643262,-0.152967 0.6937253,-0.376537 0.9707032,-0.658204 l 0.00195,-0.002 5.949219,-5.9980466 a 0.5,0.5 0 0 0 -0.0039,-0.7070313 0.5,0.5 0 0 0 -0.707032,0.00195 L 6.6953125,12.457031 a 0.50005,0.50005 0 0 0 -0.00195,0.002 c -0.1843481,0.187814 -0.4038339,0.337574 -0.6464844,0.439454 -0.2426878,0.101815 -0.5044226,0.154296 -0.7675781,0.154296 -0.2631436,0 -0.5229408,-0.05248 -0.765625,-0.154296 -0.2426505,-0.10188 -0.4621363,-0.25164 -0.6464844,-0.439454 l -1.78125,-1.810546 C 1.7119133,10.26853 1.5019531,9.7577099 1.5019531,9.2246094 c 0,-0.5322179 0.2091867,-1.0421946 0.5820313,-1.421875 l 0.00195,-0.00195 6.3378906,-6.3574218 a 0.50005,0.50005 0 0 0 0.00195,-0.00195 C 8.5652382,1.300804 8.7312689,1.1894355 8.9140625,1.1132812 9.0968607,1.0371251 9.2922159,0.99804688 9.4902344,0.99804688 c 0.198031,0 0.3932262,0.0390418 0.5761716,0.11523432 0.182779,0.076154 0.348873,0.1875492 0.488282,0.328125 a 0.50005,0.50005 0 0 0 0.002,0.00195 l 0.708984,0.7109375 a 0.50005,0.50005 0 0 0 0.002,0 c 0.140562,0.1393853 0.251851,0.3053136 0.328125,0.4882812 0.07615,0.1828558 0.115235,0.3801356 0.115235,0.578125 0,0.1979895 -0.03908,0.3933161 -0.115235,0.5761719 -0.07627,0.1829676 -0.187563,0.3488959 -0.328125,0.4882812 a 0.50005,0.50005 0 0 0 -0.002,0.00195 l -5.6191406,5.640625 a 0.50005,0.50005 0 0 0 -0.00195,0 c -0.046509,0.046879 -0.1011092,0.083946 -0.1621093,0.1093746 -0.060795,0.02534 -0.1272536,0.03906 -0.1933594,0.03906 -0.066106,0 -0.1306112,-0.01372 -0.1914063,-0.03906 -0.059313,-0.02473 -0.1125203,-0.060422 -0.1582031,-0.1054684 l -0.00391,-0.00391 -0.3476563,-0.3554688 a 0.50005,0.50005 0 0 0 -0.00586,-0.00781 C 4.5351722,9.5179791 4.4980484,9.4632909 4.4726562,9.4023438 4.4472694,9.3414094 4.4335937,9.2769423 4.4335937,9.2109375 c 0,-0.066005 0.013676,-0.132425 0.039063,-0.1933594 0.025392,-0.060947 0.062516,-0.1156353 0.109375,-0.1621093 L 5.8261719,7.6210937 8.3515625,5.1152344 a 0.5,0.5 0 0 0 0.00391,-0.7070313 0.5,0.5 0 0 0 -0.7070313,-0.00391 L 5.1210937,6.9101562 3.8769531,8.1445313 C 3.7363523,8.283977 3.6249759,8.4500399 3.5488281,8.6328125 3.472675,8.8155979 3.4335938,9.0129226 3.4335938,9.2109375 c 0,0.1980149 0.039081,0.3933865 0.1152343,0.5761719 0.074885,0.1797426 0.1849432,0.3424746 0.3222657,0.4804686 l 0.00195,0.002 c 0.00167,0.0017 0.00222,0.0042 0.00391,0.0059 l 0.34375,0.353515 a 0.50005,0.50005 0 0 0 0.00391,0.0039 c 0.1394236,0.140533 0.305586,0.251958 0.4882812,0.328125 0.1829247,0.07626 0.378258,0.115234 0.5761719,0.115234 0.1979139,0 0.3952003,-0.03898 0.578125,-0.115234 0.1822161,-0.07596 0.347156,-0.188151 0.4863281,-0.328125 l 5.6191404,-5.6386724 0.002,-0.00195 c 0.233521,-0.232074 0.418348,-0.5069177 0.544922,-0.8105469 0.126848,-0.3045837 0.191407,-0.6308875 0.191407,-0.9609375 0,-0.33005 -0.06456,-0.6583069 -0.191407,-0.9628906 C 12.392815,1.9538443 12.206545,1.6795009 11.972656,1.4472656 v -0.00195 L 11.265625,0.73828125 C 11.033234,0.50394348 10.755792,0.31832565 10.451172,0.19140625 10.146518,0.06452504 9.8202629,-0.00195313 9.4902344,-0.00195313 Z"
     id="path49" />
</svg>