<svg width="14" height="16" viewBox="0 0 14 16" fill="none" xmlns="http://www.w3.org/2000/svg">
<path d="M8.50001 7.06645L6.867 8.82585C6.54158 9.17642 6.01401 9.17642 5.6885 8.82585L5.16667 8.2635M12.6667 4.5165V7.74717C12.6667 10.6557 11.0387 13.2771 8.54323 14.3866L7.46916 14.8642C7.0619 15.0453 6.60474 15.0453 6.19748 14.8642L5.12341 14.3866C2.62801 13.2771 1 10.6557 1 7.74717V4.5165C1 3.67489 1.54255 2.94619 2.30511 2.76363L2.68353 2.67303C3.50238 2.47697 4.29506 2.17068 5.04289 1.76147L6.07857 1.19468C6.55292 0.935105 7.11376 0.935105 7.58807 1.19468L8.62375 1.76147C9.37158 2.17068 10.1643 2.47697 10.9831 2.67303L11.3616 2.76363C12.124 2.94619 12.6667 3.67489 12.6667 4.5165Z" stroke="black" stroke-width="0.802083" stroke-linecap="round" stroke-linejoin="round"/>
</svg>
