<svg width="14" height="14" viewBox="0 0 14 14" fill="none" xmlns="http://www.w3.org/2000/svg">
<g clip-path="url(#clip0_2002_554)">
<path d="M7 8C8.38071 8 9.5 6.88071 9.5 5.5C9.5 4.11929 8.38071 3 7 3C5.61929 3 4.5 4.11929 4.5 5.5C4.5 6.88071 5.61929 8 7 8Z" stroke="black" stroke-linecap="round" stroke-linejoin="round"/>
<path d="M2.10001 13.5C2.32952 12.3697 2.94274 11.3535 3.83575 10.6236C4.72876 9.89373 5.84665 9.495 7.00001 9.495C8.15336 9.495 9.27125 9.89373 10.1643 10.6236C11.0573 11.3535 11.6705 12.3697 11.9 13.5" stroke="black" stroke-linecap="round" stroke-linejoin="round"/>
<path d="M12.5 0.5H1.5C0.947715 0.5 0.5 0.947715 0.5 1.5V12.5C0.5 13.0523 0.947715 13.5 1.5 13.5H12.5C13.0523 13.5 13.5 13.0523 13.5 12.5V1.5C13.5 0.947715 13.0523 0.5 12.5 0.5Z" stroke="black" stroke-linecap="round" stroke-linejoin="round"/>
</g>
<defs>
<clipPath id="clip0_2002_554">
<rect width="14" height="14" fill="white"/>
</clipPath>
</defs>
</svg>
