<svg width="15" height="14" viewBox="0 0 15 14" fill="none" xmlns="http://www.w3.org/2000/svg">
<g clip-path="url(#clip0_2002_758)">
<path d="M9.01999 5C9.57227 5 10.02 4.55228 10.02 4C10.02 3.44772 9.57227 3 9.01999 3C8.4677 3 8.01999 3.44772 8.01999 4C8.01999 4.55228 8.4677 5 9.01999 5Z" stroke="black" stroke-linecap="round" stroke-linejoin="round"/>
<path d="M5.01999 10C5.29613 10 5.51999 9.77614 5.51999 9.5C5.51999 9.22386 5.29613 9 5.01999 9C4.74385 9 4.51999 9.22386 4.51999 9.5C4.51999 9.77614 4.74385 10 5.01999 10Z" stroke="black" stroke-linecap="round" stroke-linejoin="round"/>
<path d="M5.01999 6.5C5.57227 6.5 6.01999 6.05228 6.01999 5.5C6.01999 4.94772 5.57227 4.5 5.01999 4.5C4.4677 4.5 4.01999 4.94772 4.01999 5.5C4.01999 6.05228 4.4677 6.5 5.01999 6.5Z" stroke="black" stroke-linecap="round" stroke-linejoin="round"/>
<path d="M10.04 12.28C10.0288 12.086 9.96142 11.8995 9.84599 11.7432C9.73055 11.587 9.57209 11.4677 9.38997 11.4C8.93768 11.2513 8.55325 10.9462 8.3058 10.5395C8.05835 10.1327 7.96412 9.65106 8.04005 9.18105C8.11597 8.71105 8.35707 8.28354 8.72 7.9754C9.08293 7.66726 9.54388 7.49869 10.02 7.5H11.89C12.2107 7.5009 12.5269 7.42464 12.812 7.27767C13.0971 7.1307 13.3426 6.91732 13.528 6.65554C13.7133 6.39375 13.8329 6.09124 13.8767 5.77353C13.9206 5.45581 13.8874 5.1322 13.78 4.83C13.3822 3.70697 12.6835 2.71485 11.7601 1.96205C10.8367 1.20924 9.72413 0.724704 8.544 0.561374C7.36386 0.398044 6.16154 0.562205 5.06838 1.03592C3.97522 1.50964 3.03329 2.27468 2.34549 3.24748C1.65769 4.22027 1.25048 5.36339 1.16836 6.55194C1.08623 7.74049 1.33235 8.92875 1.87981 9.9869C2.42728 11.045 3.25504 11.9324 4.27266 12.5519C5.29027 13.1715 6.45859 13.4995 7.64997 13.5C8.23834 13.5016 8.82403 13.4209 9.38997 13.26C9.59784 13.2018 9.77785 13.0707 9.89717 12.8908C10.0165 12.7109 10.0672 12.4942 10.04 12.28V12.28Z" stroke="black" stroke-linecap="round" stroke-linejoin="round"/>
</g>
<defs>
<clipPath id="clip0_2002_758">
<rect width="14" height="14" fill="white" transform="translate(0.519989)"/>
</clipPath>
</defs>
</svg>
