<svg width="15" height="14" viewBox="0 0 15 14" fill="none" xmlns="http://www.w3.org/2000/svg">
<g clip-path="url(#clip0_2002_760)">
<path d="M9.01999 0.670069C8.03284 0.44331 7.00713 0.44331 6.01999 0.670069" stroke="black" stroke-linecap="round" stroke-linejoin="round"/>
<path d="M4.10999 1.46997C3.68094 1.73615 3.28196 2.04796 2.91999 2.39997C2.56798 2.76194 2.25617 3.16092 1.98999 3.58997" stroke="black" stroke-linecap="round" stroke-linejoin="round"/>
<path d="M1.19 5.5C0.963238 6.48715 0.963238 7.51285 1.19 8.5" stroke="black" stroke-linecap="round" stroke-linejoin="round"/>
<path d="M1.98999 10.4102C2.25617 10.8392 2.56798 11.2382 2.91999 11.6002C3.28196 11.9522 3.68094 12.264 4.10999 12.5302" stroke="black" stroke-linecap="round" stroke-linejoin="round"/>
<path d="M6.01999 13.3301C7.00713 13.5568 8.03284 13.5568 9.01999 13.3301" stroke="black" stroke-linecap="round" stroke-linejoin="round"/>
<path d="M10.93 12.5302C11.359 12.264 11.758 11.9522 12.12 11.6002C12.472 11.2382 12.7838 10.8392 13.05 10.4102" stroke="black" stroke-linecap="round" stroke-linejoin="round"/>
<path d="M13.85 8.5C14.0768 7.51285 14.0768 6.48715 13.85 5.5" stroke="black" stroke-linecap="round" stroke-linejoin="round"/>
<path d="M13.05 3.58997C12.7838 3.16092 12.472 2.76194 12.12 2.39997C11.758 2.04796 11.359 1.73615 10.93 1.46997" stroke="black" stroke-linecap="round" stroke-linejoin="round"/>
</g>
<defs>
<clipPath id="clip0_2002_760">
<rect width="14" height="14" fill="white" transform="translate(0.519989)"/>
</clipPath>
</defs>
</svg>
