<svg width="15" height="14" viewBox="0 0 15 14" fill="none" xmlns="http://www.w3.org/2000/svg">
<g clip-path="url(#clip0_2002_776)">
<path d="M2.01999 2.5C1.75477 2.5 1.50042 2.60536 1.31288 2.79289C1.12535 2.98043 1.01999 3.23478 1.01999 3.5V12.5C1.01999 12.7652 1.12535 13.0196 1.31288 13.2071C1.50042 13.3946 1.75477 13.5 2.01999 13.5H13.02C13.2852 13.5 13.5396 13.3946 13.7271 13.2071C13.9146 13.0196 14.02 12.7652 14.02 12.5V3.5C14.02 3.23478 13.9146 2.98043 13.7271 2.79289C13.5396 2.60536 13.2852 2.5 13.02 2.5H11.02" stroke="black" stroke-linecap="round" stroke-linejoin="round"/>
<path d="M4.01999 0.5V4.5" stroke="black" stroke-linecap="round" stroke-linejoin="round"/>
<path d="M11.02 0.5V4.5" stroke="black" stroke-linecap="round" stroke-linejoin="round"/>
<path d="M4.01999 2.5H9.01999" stroke="black" stroke-linecap="round" stroke-linejoin="round"/>
<path d="M4.01999 8C4.29613 8 4.51999 7.77614 4.51999 7.5C4.51999 7.22386 4.29613 7 4.01999 7C3.74385 7 3.51999 7.22386 3.51999 7.5C3.51999 7.77614 3.74385 8 4.01999 8Z" stroke="black" stroke-linecap="round" stroke-linejoin="round"/>
<path d="M7.51999 8C7.79613 8 8.01999 7.77614 8.01999 7.5C8.01999 7.22386 7.79613 7 7.51999 7C7.24385 7 7.01999 7.22386 7.01999 7.5C7.01999 7.77614 7.24385 8 7.51999 8Z" stroke="black" stroke-linecap="round" stroke-linejoin="round"/>
<path d="M11.02 8C11.2961 8 11.52 7.77614 11.52 7.5C11.52 7.22386 11.2961 7 11.02 7C10.7438 7 10.52 7.22386 10.52 7.5C10.52 7.77614 10.7438 8 11.02 8Z" stroke="black" stroke-linecap="round" stroke-linejoin="round"/>
<path d="M4.01999 11C4.29613 11 4.51999 10.7761 4.51999 10.5C4.51999 10.2239 4.29613 10 4.01999 10C3.74385 10 3.51999 10.2239 3.51999 10.5C3.51999 10.7761 3.74385 11 4.01999 11Z" stroke="black" stroke-linecap="round" stroke-linejoin="round"/>
</g>
<defs>
<clipPath id="clip0_2002_776">
<rect width="14" height="14" fill="white" transform="translate(0.519989)"/>
</clipPath>
</defs>
</svg>
