<svg width="15" height="14" viewBox="0 0 15 14" fill="none" xmlns="http://www.w3.org/2000/svg">
<g clip-path="url(#clip0_2002_535)">
<path d="M8.11 13.43C7.87833 13.5194 7.62168 13.5194 7.39 13.43V13.43C5.58227 12.736 4.0276 11.5099 2.93135 9.91372C1.83509 8.31755 1.24883 6.42637 1.25 4.48999V1.48999C1.25 1.22477 1.35536 0.97042 1.54289 0.782883C1.73043 0.595347 1.98479 0.48999 2.25 0.48999H13.25C13.5152 0.48999 13.7696 0.595347 13.9571 0.782883C14.1446 0.97042 14.25 1.22477 14.25 1.48999V4.48999C14.2512 6.42637 13.6649 8.31755 12.5687 9.91372C11.4724 11.5099 9.91773 12.736 8.11 13.43V13.43Z" stroke="black" stroke-linecap="round" stroke-linejoin="round"/>
</g>
<defs>
<clipPath id="clip0_2002_535">
<rect width="14" height="14" fill="white" transform="translate(0.75)"/>
</clipPath>
</defs>
</svg>
