<svg width="15" height="14" viewBox="0 0 15 14" fill="none" xmlns="http://www.w3.org/2000/svg">
<path d="M12.02 8.5H3.01999L2.25999 12.3C2.23136 12.4453 2.23535 12.5951 2.27167 12.7386C2.30798 12.8821 2.37572 13.0158 2.46999 13.13C2.56304 13.2447 2.68035 13.3374 2.81349 13.4014C2.94662 13.4653 3.09228 13.499 3.23999 13.5H11.8C11.9477 13.499 12.0933 13.4653 12.2265 13.4014C12.3596 13.3374 12.4769 13.2447 12.57 13.13C12.6643 13.0158 12.732 12.8821 12.7683 12.7386C12.8046 12.5951 12.8086 12.4453 12.78 12.3L12.02 8.5Z" stroke="black" stroke-linecap="round" stroke-linejoin="round"/>
<path d="M12.02 5.5C12.2852 5.5 12.5396 5.60536 12.7271 5.79289C12.9146 5.98043 13.02 6.23478 13.02 6.5V8.5H2.01999V6.5C2.01999 6.23478 2.12535 5.98043 2.31288 5.79289C2.50042 5.60536 2.75477 5.5 3.01999 5.5H4.51999C4.78521 5.5 5.03956 5.39464 5.2271 5.20711C5.41463 5.01957 5.51999 4.76522 5.51999 4.5V2.5C5.51999 1.96957 5.7307 1.46086 6.10578 1.08579C6.48085 0.710714 6.98956 0.5 7.51999 0.5C8.05042 0.5 8.55913 0.710714 8.9342 1.08579C9.30927 1.46086 9.51999 1.96957 9.51999 2.5V4.5C9.51999 4.76522 9.62535 5.01957 9.81288 5.20711C10.0004 5.39464 10.2548 5.5 10.52 5.5H12.02Z" stroke="black" stroke-linecap="round" stroke-linejoin="round"/>
<path d="M9.01999 13.5V11" stroke="black" stroke-linecap="round" stroke-linejoin="round"/>
</svg>
