<svg width="15" height="14" viewBox="0 0 15 14" fill="none" xmlns="http://www.w3.org/2000/svg">
<path d="M9.75 1.93008C10.204 1.66793 10.7188 1.52933 11.243 1.52808C11.7673 1.52684 12.2827 1.663 12.7379 1.92299C13.1932 2.18298 13.5723 2.55773 13.8376 3.00989C14.1029 3.46206 14.2451 3.97585 14.25 4.50008C14.2479 4.87975 14.1767 5.25587 14.04 5.61008" stroke="black" stroke-linecap="round" stroke-linejoin="round"/>
<path d="M11.7233 7.17001C11.5702 7.15969 11.4165 7.15969 11.2633 7.17001C11.0999 6.40139 10.6775 5.71219 10.0668 5.21769C9.45613 4.72319 8.69415 4.45337 7.90834 4.45337C7.12254 4.45337 6.36056 4.72319 5.74986 5.21769C5.13916 5.71219 4.71677 6.40139 4.55334 7.17001C4.40352 7.15968 4.25317 7.15968 4.10334 7.17001C3.73964 7.14772 3.37522 7.20012 3.03253 7.32397C2.68984 7.44781 2.37612 7.6405 2.1107 7.89015C1.84528 8.13981 1.63376 8.44115 1.48918 8.77562C1.34461 9.1101 1.27002 9.47063 1.27002 9.83501C1.27002 10.1994 1.34461 10.5599 1.48918 10.8944C1.63376 11.2289 1.84528 11.5302 2.1107 11.7799C2.37612 12.0295 2.68984 12.2222 3.03253 12.3461C3.37522 12.4699 3.73964 12.5223 4.10334 12.5H11.7233C12.4019 12.4584 13.0391 12.1595 13.5049 11.6643C13.9707 11.1691 14.23 10.5149 14.23 9.83501C14.23 9.15516 13.9707 8.50091 13.5049 8.00569C13.0391 7.51048 12.4019 7.2116 11.7233 7.17001V7.17001Z" stroke="black" stroke-linecap="round" stroke-linejoin="round"/>
</svg>
