<svg width="15" height="14" viewBox="0 0 15 14" fill="none" xmlns="http://www.w3.org/2000/svg">
<g clip-path="url(#clip0_2002_625)">
<path d="M6.64999 12.0601C5.11999 13.6001 2.51999 14.1101 1.01999 12.5701C3.01999 10.5001 1.01999 9.50008 2.51999 8.00008C2.78337 7.70668 3.10382 7.47008 3.46175 7.30472C3.81967 7.13936 4.20755 7.04873 4.60169 7.03836C4.99583 7.02798 5.38794 7.09809 5.75407 7.24439C6.1202 7.39069 6.45265 7.61012 6.7311 7.88925C7.00955 8.16838 7.22816 8.50137 7.37357 8.86785C7.51898 9.23433 7.58812 9.62662 7.57679 10.0207C7.56545 10.4148 7.47387 10.8025 7.30764 11.16C7.14141 11.5175 6.90403 11.8374 6.60999 12.1001L6.64999 12.0601Z" stroke="black" stroke-linecap="round" stroke-linejoin="round"/>
<path d="M13.44 1.08002C13.246 0.887314 13.0146 0.736424 12.7601 0.636665C12.5055 0.536907 12.2332 0.4904 11.96 0.500017C11.6869 0.507439 11.4183 0.570717 11.1706 0.685948C10.923 0.80118 10.7015 0.965922 10.52 1.17002L5.13998 7.17002C5.7169 7.28426 6.24435 7.57418 6.64998 8.00002C7.01482 8.36337 7.27999 8.81451 7.41998 9.31002L13.35 4.00002C13.5529 3.81961 13.7169 3.59979 13.8321 3.35394C13.9473 3.1081 14.0112 2.84137 14.02 2.57002C14.031 2.29512 13.9852 2.02091 13.8854 1.76454C13.7856 1.50816 13.6339 1.27513 13.44 1.08002V1.08002Z" stroke="black" stroke-linecap="round" stroke-linejoin="round"/>
</g>
<defs>
<clipPath id="clip0_2002_625">
<rect width="14" height="14" fill="white" transform="translate(0.519989)"/>
</clipPath>
</defs>
</svg>
