<svg width="15" height="14" viewBox="0 0 15 14" fill="none" xmlns="http://www.w3.org/2000/svg">
<g clip-path="url(#clip0_2002_723)">
<path d="M9.51999 9.5C12.0053 9.5 14.02 7.48528 14.02 5C14.02 2.51472 12.0053 0.5 9.51999 0.5C7.03471 0.5 5.01999 2.51472 5.01999 5C5.01999 7.48528 7.03471 9.5 9.51999 9.5Z" stroke="black" stroke-linecap="round" stroke-linejoin="round"/>
<path d="M1.01999 13.4999L6.59999 8.42993" stroke="black" stroke-linecap="round" stroke-linejoin="round"/>
<path d="M9.01999 4C9.29613 4 9.51999 3.77614 9.51999 3.5C9.51999 3.22386 9.29613 3 9.01999 3C8.74385 3 8.51999 3.22386 8.51999 3.5C8.51999 3.77614 8.74385 4 9.01999 4Z" stroke="black" stroke-linecap="round" stroke-linejoin="round"/>
</g>
<defs>
<clipPath id="clip0_2002_723">
<rect width="14" height="14" fill="white" transform="translate(0.519989)"/>
</clipPath>
</defs>
</svg>
