<svg width="14" height="14" viewBox="0 0 14 14" fill="none" xmlns="http://www.w3.org/2000/svg">
<g clip-path="url(#clip0_2002_449)">
<path d="M3.5 13.5001L6.64 6.17005C6.66961 6.09898 6.7196 6.03826 6.78367 5.99555C6.84773 5.95284 6.923 5.93005 7 5.93005C7.077 5.93005 7.15227 5.95284 7.21633 5.99555C7.2804 6.03826 7.33039 6.09898 7.36 6.17005L10.5 13.5001" stroke="black" stroke-linecap="round" stroke-linejoin="round"/>
<path d="M4.90997 10.2101H9.08997" stroke="black" stroke-linecap="round" stroke-linejoin="round"/>
<path d="M0.5 4C0.5 3.07174 0.868749 2.1815 1.52513 1.52513C2.1815 0.868749 3.07174 0.5 4 0.5" stroke="black" stroke-linecap="round" stroke-linejoin="round"/>
<path d="M0.5 4C0.5 3.07174 0.868749 2.1815 1.52513 1.52513C2.1815 0.868749 3.07174 0.5 4 0.5" stroke="black" stroke-linecap="round" stroke-linejoin="round"/>
<path d="M3 4C3 3.73478 3.10536 3.48043 3.29289 3.29289C3.48043 3.10536 3.73478 3 4 3" stroke="black" stroke-linecap="round" stroke-linejoin="round"/>
<path d="M3 4C3 3.73478 3.10536 3.48043 3.29289 3.29289C3.48043 3.10536 3.73478 3 4 3" stroke="black" stroke-linecap="round" stroke-linejoin="round"/>
<path d="M10 0.5C10.9283 0.5 11.8185 0.868749 12.4749 1.52513C13.1313 2.1815 13.5 3.07174 13.5 4" stroke="black" stroke-linecap="round" stroke-linejoin="round"/>
<path d="M10 0.5C10.9283 0.5 11.8185 0.868749 12.4749 1.52513C13.1313 2.1815 13.5 3.07174 13.5 4" stroke="black" stroke-linecap="round" stroke-linejoin="round"/>
<path d="M10 3C10.2652 3 10.5196 3.10536 10.7071 3.29289C10.8946 3.48043 11 3.73478 11 4" stroke="black" stroke-linecap="round" stroke-linejoin="round"/>
<path d="M10 3C10.2652 3 10.5196 3.10536 10.7071 3.29289C10.8946 3.48043 11 3.73478 11 4" stroke="black" stroke-linecap="round" stroke-linejoin="round"/>
</g>
<defs>
<clipPath id="clip0_2002_449">
<rect width="14" height="14" fill="white"/>
</clipPath>
</defs>
</svg>
