<svg width="15" height="14" viewBox="0 0 15 14" fill="none" xmlns="http://www.w3.org/2000/svg">
<g clip-path="url(#clip0_2002_801)">
<path d="M2.01999 10.5H13.02V12.5C13.02 12.7652 12.9146 13.0196 12.7271 13.2071C12.5396 13.3946 12.2852 13.5 12.02 13.5H3.01999C2.75477 13.5 2.50042 13.3946 2.31288 13.2071C2.12535 13.0196 2.01999 12.7652 2.01999 12.5V10.5Z" stroke="black" stroke-linecap="round" stroke-linejoin="round"/>
<path d="M11.02 6.5C10.7548 6.5 10.5004 6.39464 10.3129 6.20711C10.1253 6.01957 10.02 5.76522 10.02 5.5V3C10.02 2.33696 9.7566 1.70107 9.28776 1.23223C8.81892 0.763392 8.18303 0.5 7.51999 0.5C6.85695 0.5 6.22106 0.763392 5.75222 1.23223C5.28338 1.70107 5.01999 2.33696 5.01999 3V5.5C5.01999 5.76522 4.91463 6.01957 4.7271 6.20711C4.53956 6.39464 4.28521 6.5 4.01999 6.5H3.01999C2.48956 6.5 1.98085 6.71071 1.60578 7.08579C1.2307 7.46086 1.01999 7.96957 1.01999 8.5V9.5C1.01999 9.76522 1.12535 10.0196 1.31288 10.2071C1.50042 10.3946 1.75477 10.5 2.01999 10.5H13.02C13.2852 10.5 13.5396 10.3946 13.7271 10.2071C13.9146 10.0196 14.02 9.76522 14.02 9.5V8.5C14.02 7.96957 13.8093 7.46086 13.4342 7.08579C13.0591 6.71071 12.5504 6.5 12.02 6.5H11.02Z" stroke="black" stroke-linecap="round" stroke-linejoin="round"/>
</g>
<defs>
<clipPath id="clip0_2002_801">
<rect width="14" height="14" fill="white" transform="translate(0.519989)"/>
</clipPath>
</defs>
</svg>
