<svg width="14" height="14" viewBox="0 0 14 14" fill="none" xmlns="http://www.w3.org/2000/svg">
<g clip-path="url(#clip0_2002_299)">
<path d="M8.54002 9.70001L10.54 7.70001L12.66 5.58001C13.2218 5.01751 13.5374 4.25501 13.5374 3.46001C13.5374 2.665 13.2218 1.90251 12.66 1.34001V1.34001C12.0975 0.778205 11.335 0.462646 10.54 0.462646C9.74502 0.462646 8.98252 0.778205 8.42002 1.34001L7.00002 2.76001L5.46002 4.30001" stroke="black" stroke-linecap="round" stroke-linejoin="round"/>
<path d="M3.50002 6.26001L1.38002 8.38001C0.818213 8.94251 0.502655 9.70501 0.502655 10.5C0.502655 11.295 0.818213 12.0575 1.38002 12.62V12.62C1.94252 13.1818 2.70501 13.4974 3.50002 13.4974C4.29502 13.4974 5.05751 13.1818 5.62002 12.62L6.62002 11.62" stroke="black" stroke-linecap="round" stroke-linejoin="round"/>
<path d="M4.17001 2.05005L9.83001 11.95" stroke="black" stroke-linecap="round" stroke-linejoin="round"/>
</g>
<defs>
<clipPath id="clip0_2002_299">
<rect width="14" height="14" fill="white"/>
</clipPath>
</defs>
</svg>
