<svg width="14" height="14" viewBox="0 0 14 14" fill="none" xmlns="http://www.w3.org/2000/svg">
<g clip-path="url(#clip0_2002_382)">
<path d="M13.5 7H0.5C0.5 5.27609 1.18482 3.62279 2.40381 2.40381C3.62279 1.18482 5.27609 0.5 7 0.5C8.72391 0.5 10.3772 1.18482 11.5962 2.40381C12.8152 3.62279 13.5 5.27609 13.5 7Z" stroke="black" stroke-linecap="round" stroke-linejoin="round"/>
<path d="M1.05 9.61011C1.24895 10.073 1.50421 10.5097 1.81 10.9101C2.09966 11.3112 2.43528 11.677 2.81 12.0001" stroke="black" stroke-linecap="round" stroke-linejoin="round"/>
<path d="M13 9.61011C12.8011 10.073 12.5458 10.5097 12.24 10.9101C11.9503 11.3112 11.6147 11.677 11.24 12.0001" stroke="black" stroke-linecap="round" stroke-linejoin="round"/>
<path d="M5.5 13.3301C6.48715 13.5568 7.51285 13.5568 8.5 13.3301" stroke="black" stroke-linecap="round" stroke-linejoin="round"/>
</g>
<defs>
<clipPath id="clip0_2002_382">
<rect width="14" height="14" fill="white"/>
</clipPath>
</defs>
</svg>
