<svg width="15" height="14" viewBox="0 0 15 14" fill="none" xmlns="http://www.w3.org/2000/svg">
<g clip-path="url(#clip0_2002_508)">
<path d="M10.25 7.64998L13.52 5.53998C13.6473 5.46273 13.7558 5.358 13.8376 5.23345C13.9193 5.10889 13.9721 4.96766 13.9922 4.82006C14.0124 4.67246 13.9993 4.52224 13.9539 4.38035C13.9085 4.23847 13.832 4.10851 13.73 3.99998L10.52 0.789981C10.4114 0.687946 10.2815 0.611447 10.1396 0.566074C9.99772 0.5207 9.84749 0.507598 9.6999 0.527725C9.5523 0.547851 9.41106 0.600699 9.28651 0.682405C9.16195 0.764111 9.05722 0.872613 8.97998 0.999981L6.81998 4.22998L2.32998 5.22998C2.2273 5.2549 2.13302 5.30648 2.05668 5.37952C1.98033 5.45256 1.92463 5.54447 1.8952 5.64595C1.86577 5.74742 1.86366 5.85487 1.88909 5.95742C1.91451 6.05998 1.96656 6.154 2.03998 6.22998L8.18998 12.39C8.26782 12.4604 8.36253 12.5096 8.46495 12.5327C8.56736 12.5558 8.67401 12.5521 8.77457 12.522C8.87514 12.4918 8.96621 12.4362 9.03898 12.3605C9.11176 12.2848 9.16377 12.1916 9.18998 12.09L10.25 7.64998Z" stroke="black" stroke-linecap="round" stroke-linejoin="round"/>
<path d="M5.10999 9.37988L1.01999 13.4999" stroke="black" stroke-linecap="round" stroke-linejoin="round"/>
</g>
<defs>
<clipPath id="clip0_2002_508">
<rect width="14" height="14" fill="white" transform="translate(0.519989)"/>
</clipPath>
</defs>
</svg>
