<svg width="15" height="14" viewBox="0 0 15 14" fill="none" xmlns="http://www.w3.org/2000/svg">
<g clip-path="url(#clip0_2002_455)">
<path d="M11.75 9L13.75 8.5L14.25 10.5" stroke="black" stroke-linecap="round" stroke-linejoin="round"/>
<path d="M13.75 8.5C13.3058 9.75861 12.499 10.8576 11.4313 11.6584C10.3635 12.4592 9.08262 12.926 7.74999 13C6.5181 13.0002 5.316 12.6213 4.30697 11.9146C3.29794 11.2079 2.53088 10.2078 2.10999 9.05" stroke="black" stroke-linecap="round" stroke-linejoin="round"/>
<path d="M3.75 5L1.75 5.5L1.25 3.5" stroke="black" stroke-linecap="round" stroke-linejoin="round"/>
<path d="M1.75 5.5C2.59 3.2 5.17 1 7.75 1C8.98789 1.00348 10.1944 1.38976 11.2041 2.10588C12.2139 2.822 12.9774 3.8329 13.39 5" stroke="black" stroke-linecap="round" stroke-linejoin="round"/>
</g>
<defs>
<clipPath id="clip0_2002_455">
<rect width="14" height="14" fill="white" transform="translate(0.75)"/>
</clipPath>
</defs>
</svg>
