<svg width="14" height="14" viewBox="0 0 14 14" fill="none" xmlns="http://www.w3.org/2000/svg">
<g clip-path="url(#clip0_2002_752)">
<path d="M7.47 6.89996C7.32167 6.96437 7.1617 6.9976 7 6.9976C6.83829 6.9976 6.67832 6.96437 6.53 6.89996L0.829996 4.25996C0.737437 4.21328 0.659654 4.14182 0.605308 4.05354C0.550962 3.96526 0.522186 3.86363 0.522186 3.75996C0.522186 3.65629 0.550962 3.55466 0.605308 3.46638C0.659654 3.37811 0.737437 3.30665 0.829996 3.25996L6.53 0.599961C6.67832 0.535554 6.83829 0.502319 7 0.502319C7.1617 0.502319 7.32167 0.535554 7.47 0.599961L13.17 3.23996C13.2626 3.28665 13.3403 3.35811 13.3947 3.44638C13.449 3.53466 13.4778 3.63629 13.4778 3.73996C13.4778 3.84363 13.449 3.94526 13.3947 4.03354C13.3403 4.12182 13.2626 4.19328 13.17 4.23996L7.47 6.89996Z" stroke="black" stroke-linecap="round" stroke-linejoin="round"/>
<path d="M13.5 7.34998L7.4 10.16C7.26972 10.2194 7.12819 10.2502 6.985 10.2502C6.84181 10.2502 6.70028 10.2194 6.57 10.16L0.5 7.34998" stroke="black" stroke-linecap="round" stroke-linejoin="round"/>
<path d="M13.5 10.6L7.4 13.41C7.26972 13.4694 7.12819 13.5002 6.985 13.5002C6.84181 13.5002 6.70028 13.4694 6.57 13.41L0.5 10.6" stroke="black" stroke-linecap="round" stroke-linejoin="round"/>
</g>
<defs>
<clipPath id="clip0_2002_752">
<rect width="14" height="14" fill="white"/>
</clipPath>
</defs>
</svg>
