<svg width="14" height="14" viewBox="0 0 14 14" fill="none" xmlns="http://www.w3.org/2000/svg">
<g clip-path="url(#clip0_2002_548)">
<path d="M5.23001 2.25L5.66001 1.14C5.73253 0.952064 5.86012 0.790411 6.02606 0.676212C6.19201 0.562014 6.38857 0.500595 6.59001 0.5H7.41001C7.61145 0.500595 7.80802 0.562014 7.97396 0.676212C8.13991 0.790411 8.26749 0.952064 8.34001 1.14L8.77001 2.25L10.23 3.09L11.41 2.91C11.6065 2.88333 11.8065 2.91567 11.9845 3.00292C12.1626 3.09017 12.3107 3.22838 12.41 3.4L12.81 4.1C12.9125 4.27435 12.9597 4.47568 12.9455 4.67742C12.9312 4.87916 12.8561 5.07183 12.73 5.23L12 6.16V7.84L12.75 8.77C12.8761 8.92817 12.9512 9.12084 12.9655 9.32258C12.9797 9.52432 12.9325 9.72565 12.83 9.9L12.43 10.6C12.3307 10.7716 12.1826 10.9098 12.0045 10.9971C11.8265 11.0843 11.6265 11.1167 11.43 11.09L10.25 10.91L8.79001 11.75L8.36001 12.86C8.28749 13.0479 8.15991 13.2096 7.99396 13.3238C7.82802 13.438 7.63145 13.4994 7.43001 13.5H6.59001C6.38857 13.4994 6.19201 13.438 6.02606 13.3238C5.86012 13.2096 5.73253 13.0479 5.66001 12.86L5.23001 11.75L3.77001 10.91L2.59001 11.09C2.39353 11.1167 2.19355 11.0843 2.01549 10.9971C1.83744 10.9098 1.68933 10.7716 1.59001 10.6L1.19001 9.9C1.08751 9.72565 1.04029 9.52432 1.05457 9.32258C1.06885 9.12084 1.14397 8.92817 1.27001 8.77L2.00001 7.84V6.16L1.25001 5.23C1.12397 5.07183 1.04885 4.87916 1.03457 4.67742C1.02029 4.47568 1.06751 4.27435 1.17001 4.1L1.57001 3.4C1.66934 3.22838 1.81744 3.09017 1.99549 3.00292C2.17355 2.91567 2.37353 2.88333 2.57001 2.91L3.75001 3.09L5.23001 2.25Z" stroke="black" stroke-linecap="round" stroke-linejoin="round"/>
<path d="M7 10C8.65685 10 10 8.65685 10 7C10 5.34315 8.65685 4 7 4C5.34315 4 4 5.34315 4 7C4 8.65685 5.34315 10 7 10Z" stroke="black" stroke-linecap="round" stroke-linejoin="round"/>
<path d="M7 4V7H10" stroke="black" stroke-linecap="round" stroke-linejoin="round"/>
<path d="M7 7L4.88 9.12" stroke="black" stroke-linecap="round" stroke-linejoin="round"/>
</g>
<defs>
<clipPath id="clip0_2002_548">
<rect width="14" height="14" fill="white"/>
</clipPath>
</defs>
</svg>
