<svg width="14" height="14" viewBox="0 0 14 14" fill="none" xmlns="http://www.w3.org/2000/svg">
<g clip-path="url(#clip0_2002_566)">
<path d="M4.99999 9.42999C4.58148 9.78863 4.05106 9.99019 3.49999 9.99999C3.0964 10.0387 2.68924 9.98769 2.30768 9.85062C1.92611 9.71354 1.57957 9.49379 1.29288 9.2071C1.00619 8.92041 0.786441 8.57387 0.649365 8.1923C0.512289 7.81074 0.46128 7.40358 0.49999 6.99999C0.46128 6.5964 0.512289 6.18924 0.649365 5.80768C0.786441 5.42611 1.00619 5.07957 1.29288 4.79288C1.57957 4.50619 1.92611 4.28644 2.30768 4.14937C2.68924 4.01229 3.0964 3.96128 3.49999 3.99999C6.24999 3.99999 7.74999 9.99999 10.5 9.99999C10.9036 10.0387 11.3107 9.98769 11.6923 9.85062C12.0739 9.71354 12.4204 9.49379 12.7071 9.2071C12.9938 8.92041 13.2135 8.57387 13.3506 8.1923C13.4877 7.81074 13.5387 7.40358 13.5 6.99999C13.5387 6.5964 13.4877 6.18924 13.3506 5.80768C13.2135 5.42611 12.9938 5.07957 12.7071 4.79288C12.4204 4.50619 12.0739 4.28644 11.6923 4.14937C11.3107 4.01229 10.9036 3.96128 10.5 3.99999C9.96623 4.02115 9.45528 4.22201 9.04999 4.56999" stroke="black" stroke-linecap="round" stroke-linejoin="round"/>
</g>
<defs>
<clipPath id="clip0_2002_566">
<rect width="14" height="14" fill="white"/>
</clipPath>
</defs>
</svg>
