<svg width="15" height="14" viewBox="0 0 15 14" fill="none" xmlns="http://www.w3.org/2000/svg">
<g clip-path="url(#clip0_2002_618)">
<path d="M14.25 7.5H1.25V13.5H14.25V7.5Z" stroke="black" stroke-linecap="round" stroke-linejoin="round"/>
<path d="M7.75002 0.49988C7.75002 0.49988 9.25002 2.99988 7.25002 3.99988C6.25002 4.49988 4.75002 2.99988 4.75002 2.99988C4.52483 3.49262 4.42925 4.03472 4.47237 4.57476C4.51548 5.11481 4.69585 5.63488 4.99636 6.08565C5.29688 6.53642 5.70757 6.90295 6.18949 7.15045C6.67141 7.39796 7.20857 7.51824 7.75002 7.49988C8.2157 7.52278 8.68102 7.44792 9.11603 7.28013C9.55104 7.11234 9.9461 6.85533 10.2758 6.52565C10.6055 6.19596 10.8625 5.8009 11.0303 5.36589C11.1981 4.93088 11.2729 4.46556 11.25 3.99988C11.2729 3.5342 11.1981 3.06888 11.0303 2.63387C10.8625 2.19886 10.6055 1.8038 10.2758 1.47411C9.9461 1.14443 9.55104 0.887418 9.11603 0.719628C8.68102 0.551837 8.2157 0.476982 7.75002 0.49988Z" stroke="black" stroke-linecap="round" stroke-linejoin="round"/>
<path d="M1.25 10.5H14.25" stroke="black" stroke-linecap="round" stroke-linejoin="round"/>
<path d="M6.25 10.5V13.5" stroke="black" stroke-linecap="round" stroke-linejoin="round"/>
<path d="M9.25 7.5V10.5" stroke="black" stroke-linecap="round" stroke-linejoin="round"/>
</g>
<defs>
<clipPath id="clip0_2002_618">
<rect width="14" height="14" fill="white" transform="translate(0.75)"/>
</clipPath>
</defs>
</svg>
