<svg width="14" height="14" viewBox="0 0 14 14" fill="none" xmlns="http://www.w3.org/2000/svg">
<path d="M7 13.39C7.65661 13.39 8.30679 13.2607 8.91342 13.0094C9.52004 12.7582 10.0712 12.3899 10.5355 11.9256C10.9998 11.4613 11.3681 10.9101 11.6194 10.3034C11.8707 9.69682 12 9.04664 12 8.39003V5.61003C12.0001 4.38171 11.548 3.19635 10.73 2.28003" stroke="black" stroke-linecap="round" stroke-linejoin="round"/>
<path d="M2 6.71997V8.38997C1.99967 9.37426 2.28985 10.3368 2.8342 11.1568C3.37854 11.9769 4.15282 12.6181 5.06 13" stroke="black" stroke-linecap="round" stroke-linejoin="round"/>
<path d="M9.49998 1.27997C8.35158 0.616958 6.98685 0.437285 5.70598 0.780475C4.42512 1.12366 3.33304 1.9616 2.66998 3.10997C2.39695 3.5815 2.20432 4.09519 2.09998 4.62997" stroke="black" stroke-linecap="round" stroke-linejoin="round"/>
<path d="M6.47998 3.50992C6.84778 3.43357 7.22802 3.44074 7.59268 3.5309C7.95734 3.62107 8.29711 3.79194 8.58694 4.0309C8.87677 4.26987 9.10927 4.57084 9.26729 4.91162C9.42531 5.25241 9.50483 5.62431 9.49998 5.99992V7.60992" stroke="black" stroke-linecap="round" stroke-linejoin="round"/>
<path d="M8.86001 9.71C8.51977 10.089 8.07188 10.355 7.57628 10.4725C7.08069 10.59 6.56104 10.5533 6.08689 10.3673C5.61273 10.1813 5.20668 9.85498 4.92309 9.43192C4.63949 9.00885 4.49188 8.50926 4.50001 8V6C4.49811 5.65655 4.56616 5.3163 4.70001 5" stroke="black" stroke-linecap="round" stroke-linejoin="round"/>
<path d="M7 6.10986V7.77986" stroke="black" stroke-linecap="round" stroke-linejoin="round"/>
</svg>
