<svg width="15" height="14" viewBox="0 0 15 14" fill="none" xmlns="http://www.w3.org/2000/svg">
<g clip-path="url(#clip0_2002_792)">
<path d="M14 6.92017C13.9903 8.03132 13.7378 9.12692 13.26 10.1302" stroke="black" stroke-linecap="round" stroke-linejoin="round"/>
<path d="M7.5 13.4202C6.64641 13.4202 5.80117 13.252 5.01256 12.9254C4.22394 12.5987 3.50739 12.1199 2.90381 11.5164C1.68482 10.2974 1 8.64407 1 6.92017" stroke="black" stroke-linecap="round" stroke-linejoin="round"/>
<path d="M9.5 8.92017L7.5 6.42017H4.5" stroke="black" stroke-linecap="round" stroke-linejoin="round"/>
<path d="M12.5 12.9202C13.3284 12.9202 14 12.2486 14 11.4202C14 10.5917 13.3284 9.92017 12.5 9.92017C11.6716 9.92017 11 10.5917 11 11.4202C11 12.2486 11.6716 12.9202 12.5 12.9202Z" stroke="black" stroke-linecap="round" stroke-linejoin="round"/>
<path d="M1.42001 4.52C1.63795 3.97536 1.93077 3.46376 2.29001 3" stroke="black" stroke-linecap="round" stroke-linejoin="round"/>
<path d="M4.22 1.28008C4.78356 0.954662 5.39414 0.718528 6.03 0.580078" stroke="black" stroke-linecap="round" stroke-linejoin="round"/>
<path d="M13.58 4.52C13.3621 3.97536 13.0692 3.46376 12.71 3" stroke="black" stroke-linecap="round" stroke-linejoin="round"/>
<path d="M10.78 1.28008C10.2164 0.954662 9.60587 0.718528 8.97 0.580078" stroke="black" stroke-linecap="round" stroke-linejoin="round"/>
</g>
<defs>
<clipPath id="clip0_2002_792">
<rect width="14" height="14" fill="white" transform="translate(0.5)"/>
</clipPath>
</defs>
</svg>
