<svg width="14" height="14" viewBox="0 0 14 14" fill="none" xmlns="http://www.w3.org/2000/svg">
<g clip-path="url(#clip0_2002_516)">
<path d="M12.84 12.0701L1.17 8.00005C0.979586 7.93362 0.813707 7.81116 0.694137 7.64876C0.574567 7.48636 0.506894 7.2916 0.5 7.09005V6.00005C0.500824 5.79333 0.56569 5.59195 0.685674 5.42362C0.805657 5.25528 0.974861 5.12827 1.17 5.06005L12.84 1.00005C12.9149 0.974742 12.9948 0.967567 13.073 0.979113C13.1513 0.990659 13.2256 1.0206 13.29 1.06647C13.3545 1.11235 13.4071 1.17284 13.4436 1.243C13.4801 1.31316 13.4994 1.39097 13.5 1.47005V11.6001C13.4994 11.6791 13.4801 11.7569 13.4436 11.8271C13.4071 11.8973 13.3545 11.9578 13.29 12.0036C13.2256 12.0495 13.1513 12.0794 13.073 12.091C12.9948 12.1025 12.9149 12.0954 12.84 12.0701Z" stroke="black" stroke-linecap="round" stroke-linejoin="round"/>
<path d="M8.48 10.57C8.39581 11.2647 8.05 11.9011 7.513 12.3497C6.976 12.7983 6.28819 13.0253 5.58967 12.9845C4.89114 12.9437 4.23444 12.6382 3.7533 12.1301C3.27216 11.6221 3.00277 10.9497 3 10.25V8.66003" stroke="black" stroke-linecap="round" stroke-linejoin="round"/>
</g>
<defs>
<clipPath id="clip0_2002_516">
<rect width="14" height="14" fill="white"/>
</clipPath>
</defs>
</svg>
