<svg width="15" height="14" viewBox="0 0 15 14" fill="none" xmlns="http://www.w3.org/2000/svg">
<g clip-path="url(#clip0_2002_734)">
<path d="M13.02 0.5H4.01999C3.4677 0.5 3.01999 0.947715 3.01999 1.5V3.5C3.01999 4.05228 3.4677 4.5 4.01999 4.5H13.02C13.5723 4.5 14.02 4.05228 14.02 3.5V1.5C14.02 0.947715 13.5723 0.5 13.02 0.5Z" stroke="black" stroke-linecap="round" stroke-linejoin="round"/>
<path d="M8.51999 9.5V8.5C8.51999 7.96957 8.30928 7.46086 7.9342 7.08579C7.55913 6.71071 7.05042 6.5 6.51999 6.5H3.01999C2.48956 6.5 1.98085 6.28929 1.60578 5.91421C1.2307 5.53914 1.01999 5.03043 1.01999 4.5V3.5C1.01999 3.23478 1.12535 2.98043 1.31288 2.79289C1.50042 2.60536 1.75477 2.5 2.01999 2.5H3.01999" stroke="black" stroke-linecap="round" stroke-linejoin="round"/>
<path d="M7.01999 13.5V10.5C7.01999 10.2348 7.12535 9.98043 7.31288 9.79289C7.50042 9.60536 7.75477 9.5 8.01999 9.5H9.01999C9.28521 9.5 9.53956 9.60536 9.7271 9.79289C9.91463 9.98043 10.02 10.2348 10.02 10.5V13.5" stroke="black" stroke-linecap="round" stroke-linejoin="round"/>
</g>
<defs>
<clipPath id="clip0_2002_734">
<rect width="14" height="14" fill="white" transform="translate(0.519989)"/>
</clipPath>
</defs>
</svg>
