<svg width="14" height="14" viewBox="0 0 14 14" fill="none" xmlns="http://www.w3.org/2000/svg">
<g clip-path="url(#clip0_2002_542)">
<path d="M4.85083 7.03767L6.97215 9.15899C7.06404 9.25088 7.11567 9.37552 7.11567 9.50547C7.11567 9.63543 7.06404 9.76006 6.97215 9.85196L3.84674 12.9774C3.47167 13.3524 2.96296 13.5632 2.43252 13.5632C1.90209 13.5632 1.39338 13.3524 1.01831 12.9774V12.9774C0.643238 12.6023 0.432525 12.0936 0.432525 11.5632C0.432525 11.0327 0.643238 10.524 1.01831 10.1489L4.14372 7.02353C4.1904 6.97677 4.24605 6.93994 4.30733 6.91525C4.3686 6.89055 4.43424 6.8785 4.50029 6.87982C4.56634 6.88114 4.63145 6.89581 4.69169 6.92293C4.75193 6.95006 4.80606 6.98909 4.85083 7.03767Z" stroke="black" stroke-linecap="round" stroke-linejoin="round"/>
<path d="M5.91 8.09011L10.39 3.61011" stroke="black" stroke-linecap="round" stroke-linejoin="round"/>
<path d="M10.74 3.95L10.05 3.26V1.88L12.12 0.5L13.5 1.88L12.12 3.95H10.74Z" stroke="black" stroke-linecap="round" stroke-linejoin="round"/>
</g>
<defs>
<clipPath id="clip0_2002_542">
<rect width="14" height="14" fill="white"/>
</clipPath>
</defs>
</svg>
