<svg width="15" height="14" viewBox="0 0 15 14" fill="none" xmlns="http://www.w3.org/2000/svg">
<g clip-path="url(#clip0_2002_682)">
<path d="M6.01999 12.4998C6.29634 12.2451 6.5169 11.9359 6.66776 11.5916C6.81863 11.2474 6.89651 10.8757 6.89651 10.4998C6.89651 10.124 6.81863 9.75222 6.66776 9.40799C6.5169 9.06377 6.29634 8.75454 6.01999 8.49982C5.76527 8.22347 5.45604 8.0029 5.11181 7.85204C4.76758 7.70118 4.39582 7.62329 4.01999 7.62329C3.64415 7.62329 3.2724 7.70118 2.92817 7.85204C2.58394 8.0029 2.27471 8.22347 2.01999 8.49982C1.01999 9.49982 1.01999 13.4998 1.01999 13.4998C1.01999 13.4998 5.01999 13.4998 6.01999 12.4998Z" stroke="black" stroke-linecap="round" stroke-linejoin="round"/>
<path d="M13.44 1.07993C13.0936 0.737931 12.6343 0.534011 12.1483 0.506396C11.6623 0.478782 11.1829 0.629371 10.8 0.929934L5.02 4.99993L4.31 7.63993C4.96161 7.72248 5.5652 8.02604 6.02 8.49993C6.49389 8.95473 6.79745 9.55832 6.88 10.2099L9.52 9.49993L13.59 3.71993C13.8906 3.33701 14.0411 2.85762 14.0135 2.37161C13.9859 1.8856 13.782 1.42635 13.44 1.07993V1.07993Z" stroke="black" stroke-linecap="round" stroke-linejoin="round"/>
<path d="M1.01999 13.5L4.26999 10.25" stroke="black" stroke-linecap="round" stroke-linejoin="round"/>
</g>
<defs>
<clipPath id="clip0_2002_682">
<rect width="14" height="14" fill="white" transform="translate(0.519989)"/>
</clipPath>
</defs>
</svg>
