<svg width="14" height="14" viewBox="0 0 14 14" fill="none" xmlns="http://www.w3.org/2000/svg">
<path d="M6.5 12.5001L9.64 5.17005C9.66961 5.09898 9.7196 5.03826 9.78367 4.99555C9.84773 4.95284 9.923 4.93005 10 4.93005C10.077 4.93005 10.1523 4.95284 10.2163 4.99555C10.2804 5.03826 10.3304 5.09898 10.36 5.17005L13.5 12.5001" stroke="black" stroke-linecap="round" stroke-linejoin="round"/>
<path d="M7.90997 9.21008H12.09" stroke="black" stroke-linecap="round" stroke-linejoin="round"/>
<path d="M0.5 12.5L5.07 1.84002C5.1191 1.75032 5.19142 1.67548 5.27939 1.62335C5.36737 1.57121 5.46774 1.5437 5.57 1.5437C5.67226 1.5437 5.77264 1.57121 5.86061 1.62335C5.94858 1.67548 6.0209 1.75032 6.07 1.84002L7 3.94002" stroke="black" stroke-linecap="round" stroke-linejoin="round"/>
<path d="M2.54999 7.71997H4.99999" stroke="black" stroke-linecap="round" stroke-linejoin="round"/>
</svg>
