<svg width="15" height="14" viewBox="0 0 15 14" fill="none" xmlns="http://www.w3.org/2000/svg">
<path d="M5.73001 2.25L6.16001 1.14C6.23253 0.952064 6.36012 0.790411 6.52606 0.676212C6.69201 0.562014 6.88857 0.500595 7.09001 0.5H7.91001C8.11145 0.500595 8.30802 0.562014 8.47396 0.676212C8.63991 0.790411 8.76749 0.952064 8.84001 1.14L9.27001 2.25L10.73 3.09L11.91 2.91C12.1065 2.88333 12.3065 2.91567 12.4845 3.00292C12.6626 3.09017 12.8107 3.22838 12.91 3.4L13.31 4.1C13.4125 4.27435 13.4597 4.47568 13.4455 4.67742C13.4312 4.87916 13.3561 5.07183 13.23 5.23L12.5 6.16V7.84L13.25 8.77C13.3761 8.92817 13.4512 9.12084 13.4655 9.32258C13.4797 9.52432 13.4325 9.72565 13.33 9.9L12.93 10.6C12.8307 10.7716 12.6826 10.9098 12.5045 10.9971C12.3265 11.0843 12.1265 11.1167 11.93 11.09L10.75 10.91L9.29001 11.75L8.86001 12.86C8.78749 13.0479 8.65991 13.2096 8.49396 13.3238C8.32802 13.438 8.13145 13.4994 7.93001 13.5H7.09001C6.88857 13.4994 6.69201 13.438 6.52606 13.3238C6.36012 13.2096 6.23253 13.0479 6.16001 12.86L5.73001 11.75L4.27001 10.91L3.09001 11.09C2.89353 11.1167 2.69355 11.0843 2.51549 10.9971C2.33744 10.9098 2.18933 10.7716 2.09001 10.6L1.69001 9.9C1.58751 9.72565 1.54029 9.52432 1.55457 9.32258C1.56885 9.12084 1.64397 8.92817 1.77001 8.77L2.50001 7.84V6.16L1.75001 5.23C1.62397 5.07183 1.54885 4.87916 1.53457 4.67742C1.52029 4.47568 1.56751 4.27435 1.67001 4.1L2.07001 3.4C2.16934 3.22838 2.31744 3.09017 2.49549 3.00292C2.67355 2.91567 2.87353 2.88333 3.07001 2.91L4.25001 3.09L5.73001 2.25ZM5.50001 7C5.50001 7.39556 5.61731 7.78224 5.83707 8.11114C6.05684 8.44004 6.36919 8.69638 6.73464 8.84776C7.1001 8.99913 7.50223 9.03874 7.89019 8.96157C8.27815 8.8844 8.63452 8.69392 8.91422 8.41421C9.19393 8.13451 9.38441 7.77814 9.46158 7.39018C9.53875 7.00222 9.49915 6.60009 9.34777 6.23463C9.1964 5.86918 8.94005 5.55682 8.61115 5.33706C8.28225 5.1173 7.89557 5 7.50001 5C6.96958 5 6.46087 5.21071 6.0858 5.58579C5.71073 5.96086 5.50001 6.46957 5.50001 7V7Z" stroke="black" stroke-linecap="round" stroke-linejoin="round"/>
</svg>
