<svg width="15" height="14" viewBox="0 0 15 14" fill="none" xmlns="http://www.w3.org/2000/svg">
<g clip-path="url(#clip0_2002_789)">
<path d="M1.01999 8.5C1.01999 8.76522 1.12535 9.01957 1.31288 9.20711C1.50042 9.39464 1.75477 9.5 2.01999 9.5" stroke="black" stroke-linecap="round" stroke-linejoin="round"/>
<path d="M2.01999 0.5C1.75477 0.5 1.50042 0.605357 1.31288 0.792893C1.12535 0.98043 1.01999 1.23478 1.01999 1.5" stroke="black" stroke-linecap="round" stroke-linejoin="round"/>
<path d="M10.02 1.5C10.02 1.23478 9.91463 0.98043 9.7271 0.792893C9.53956 0.605357 9.28521 0.5 9.01999 0.5" stroke="black" stroke-linecap="round" stroke-linejoin="round"/>
<path d="M4.51999 0.5H6.51999" stroke="black" stroke-linecap="round" stroke-linejoin="round"/>
<path d="M1.01999 4V6" stroke="black" stroke-linecap="round" stroke-linejoin="round"/>
<path d="M10.02 4.5H13.02C13.2852 4.5 13.5396 4.60536 13.7271 4.79289C13.9146 4.98043 14.02 5.23478 14.02 5.5V12.5C14.02 12.7652 13.9146 13.0196 13.7271 13.2071C13.5396 13.3946 13.2852 13.5 13.02 13.5H6.01999C5.75477 13.5 5.50042 13.3946 5.31288 13.2071C5.12535 13.0196 5.01999 12.7652 5.01999 12.5V9.5H9.01999C9.28521 9.5 9.53956 9.39464 9.7271 9.20711C9.91463 9.01957 10.02 8.76522 10.02 8.5V4.5Z" stroke="black" stroke-linecap="round" stroke-linejoin="round"/>
</g>
<defs>
<clipPath id="clip0_2002_789">
<rect width="14" height="14" fill="white" transform="translate(0.519989)"/>
</clipPath>
</defs>
</svg>
