<svg width="14" height="14" viewBox="0 0 14 14" fill="none" xmlns="http://www.w3.org/2000/svg">
<g clip-path="url(#clip0_2002_757)">
<path d="M1.5 2.5C1.23478 2.5 0.98043 2.60536 0.792893 2.79289C0.605357 2.98043 0.5 3.23478 0.5 3.5V12.5C0.5 12.7652 0.605357 13.0196 0.792893 13.2071C0.98043 13.3946 1.23478 13.5 1.5 13.5H12.5C12.7652 13.5 13.0196 13.3946 13.2071 13.2071C13.3946 13.0196 13.5 12.7652 13.5 12.5V3.5C13.5 3.23478 13.3946 2.98043 13.2071 2.79289C13.0196 2.60536 12.7652 2.5 12.5 2.5H10.5" stroke="black" stroke-linecap="round" stroke-linejoin="round"/>
<path d="M3.5 0.5V4.5" stroke="black" stroke-linecap="round" stroke-linejoin="round"/>
<path d="M10.5 0.5V4.5" stroke="black" stroke-linecap="round" stroke-linejoin="round"/>
<path d="M3.5 2.5H8.5" stroke="black" stroke-linecap="round" stroke-linejoin="round"/>
<path d="M6.97 4.5V6" stroke="black" stroke-linecap="round" stroke-linejoin="round"/>
<path d="M3.94 6.25L5.24 7" stroke="black" stroke-linecap="round" stroke-linejoin="round"/>
<path d="M3.94 9.75L5.24 9" stroke="black" stroke-linecap="round" stroke-linejoin="round"/>
<path d="M6.97 11.5V10" stroke="black" stroke-linecap="round" stroke-linejoin="round"/>
<path d="M10 9.75L8.7 9" stroke="black" stroke-linecap="round" stroke-linejoin="round"/>
<path d="M10 6.25L8.7 7" stroke="black" stroke-linecap="round" stroke-linejoin="round"/>
<path d="M6.97 10C8.07457 10 8.97 9.10457 8.97 8C8.97 6.89543 8.07457 6 6.97 6C5.86543 6 4.97 6.89543 4.97 8C4.97 9.10457 5.86543 10 6.97 10Z" stroke="black" stroke-linecap="round" stroke-linejoin="round"/>
</g>
<defs>
<clipPath id="clip0_2002_757">
<rect width="14" height="14" fill="white"/>
</clipPath>
</defs>
</svg>
