<svg width="14" height="14" viewBox="0 0 14 14" fill="none" xmlns="http://www.w3.org/2000/svg">
<g clip-path="url(#clip0_2002_371)">
<path d="M7 9C8.24264 9 9.25 7.99264 9.25 6.75C9.25 5.50736 8.24264 4.5 7 4.5C5.75736 4.5 4.75 5.50736 4.75 6.75C4.75 7.99264 5.75736 9 7 9Z" stroke="black" stroke-linecap="round" stroke-linejoin="round"/>
<path d="M11 13.5C10.6214 12.7654 10.0479 12.1493 9.34233 11.7192C8.63675 11.2891 7.82635 11.0615 7 11.0615C6.17365 11.0615 5.36325 11.2891 4.65767 11.7192C3.95209 12.1493 3.37857 12.7654 3 13.5" stroke="black" stroke-linecap="round" stroke-linejoin="round"/>
<path d="M12 10.56C12.7096 9.63436 13.1461 8.52866 13.2601 7.36792C13.3741 6.20718 13.161 5.0377 12.6449 3.99176C12.1288 2.94582 11.3304 2.06515 10.3399 1.44935C9.34939 0.833556 8.20634 0.507202 7.04001 0.507202C5.87369 0.507202 4.73063 0.833556 3.74013 1.44935C2.74962 2.06515 1.95118 2.94582 1.43512 3.99176C0.919054 5.0377 0.705954 6.20718 0.819921 7.36792C0.933888 8.52866 1.37037 9.63436 2.08001 10.56" stroke="black" stroke-linecap="round" stroke-linejoin="round"/>
</g>
<defs>
<clipPath id="clip0_2002_371">
<rect width="14" height="14" fill="white"/>
</clipPath>
</defs>
</svg>
