<svg width="15" height="14" viewBox="0 0 15 14" fill="none" xmlns="http://www.w3.org/2000/svg">
<path d="M4.75 11.5L5.25 10.5" stroke="black" stroke-linecap="round" stroke-linejoin="round"/>
<path d="M9.25 11.5L9.75 10.5" stroke="black" stroke-linecap="round" stroke-linejoin="round"/>
<path d="M6.5 13.5L7 12.5" stroke="black" stroke-linecap="round" stroke-linejoin="round"/>
<path d="M2 13.5L2.5 12.5" stroke="black" stroke-linecap="round" stroke-linejoin="round"/>
<path d="M11 13.5L11.5 12.5" stroke="black" stroke-linecap="round" stroke-linejoin="round"/>
<path d="M11 8C11.663 8 12.2989 7.73661 12.7678 7.26777C13.2366 6.79892 13.5 6.16304 13.5 5.5C13.5 4.83696 13.2366 4.20107 12.7678 3.73223C12.2989 3.26339 11.663 3 11 3C10.4298 3.0019 9.87676 3.19563 9.43 3.55C9.29711 2.85062 8.96789 2.20351 8.48083 1.68432C7.99376 1.16512 7.36897 0.795297 6.67949 0.618068C5.99001 0.440839 5.26432 0.463529 4.58726 0.683485C3.9102 0.903442 3.30973 1.31158 2.85605 1.86018C2.40237 2.40879 2.11423 3.0752 2.02529 3.78152C1.93636 4.48784 2.05031 5.20488 2.35383 5.84883C2.65735 6.49278 3.13789 7.03703 3.73929 7.41796C4.3407 7.7989 5.03811 8.00077 5.75 8H11Z" stroke="black" stroke-linecap="round" stroke-linejoin="round"/>
</svg>
