<svg width="14" height="14" viewBox="0 0 14 14" fill="none" xmlns="http://www.w3.org/2000/svg">
<g clip-path="url(#clip0_2002_620)">
<path d="M13.43 3.58996C13.4107 3.48517 13.3695 3.38561 13.3092 3.29774C13.2489 3.20988 13.1708 3.13568 13.08 3.07996L11.08 5.07996C10.9867 5.17674 10.8749 5.25373 10.7512 5.30631C10.6274 5.35889 10.4944 5.38599 10.36 5.38599C10.2256 5.38599 10.0925 5.35889 9.96882 5.30631C9.84511 5.25373 9.73327 5.17674 9.63999 5.07996L8.87999 4.39996C8.69676 4.21303 8.59413 3.96171 8.59413 3.69996C8.59413 3.43821 8.69676 3.18689 8.87999 2.99996L10.88 0.999961C10.8364 0.897498 10.7708 0.805872 10.6878 0.731567C10.6049 0.657261 10.5066 0.602091 10.4 0.569961C9.70216 0.430801 8.97929 0.490369 8.31365 0.741884C7.64802 0.993399 7.06638 1.42675 6.63495 1.99261C6.20353 2.55847 5.93964 3.2341 5.87335 3.94257C5.80706 4.65104 5.94103 5.36389 6.25999 5.99996L0.799991 11.41C0.704745 11.5031 0.629066 11.6143 0.577398 11.7371C0.52573 11.8599 0.499115 11.9918 0.499115 12.125C0.499115 12.2582 0.52573 12.39 0.577398 12.5128C0.629066 12.6356 0.704745 12.7468 0.799991 12.84L1.15999 13.2C1.25312 13.2952 1.36434 13.3709 1.48713 13.4226C1.60991 13.4742 1.74178 13.5008 1.87499 13.5008C2.0082 13.5008 2.14007 13.4742 2.26285 13.4226C2.38564 13.3709 2.49686 13.2952 2.58999 13.2L8.04999 7.74996C8.68623 8.05309 9.39409 8.17381 10.0948 8.09868C10.7956 8.02356 11.4618 7.75555 12.0193 7.32445C12.5768 6.89334 13.0039 6.31605 13.2529 5.65675C13.502 4.99746 13.5633 4.28201 13.43 3.58996V3.58996Z" stroke="black" stroke-linecap="round" stroke-linejoin="round"/>
</g>
<defs>
<clipPath id="clip0_2002_620">
<rect width="14" height="14" fill="white"/>
</clipPath>
</defs>
</svg>
