<svg width="14" height="14" viewBox="0 0 14 14" fill="none" xmlns="http://www.w3.org/2000/svg">
<g clip-path="url(#clip0_2002_457)">
<path d="M10.08 8.66992C10.3221 8.95231 10.504 9.2812 10.6144 9.63641C10.7249 9.99162 10.7615 10.3656 10.7222 10.7355C10.6829 11.1054 10.5684 11.4634 10.3857 11.7874C10.2031 12.1115 9.9561 12.3948 9.66001 12.6199C8.87499 13.1557 7.95492 13.4596 7.0052 13.4968C6.05547 13.5339 5.11449 13.3028 4.29001 12.8299L3.39001 12.3199" stroke="black" stroke-linecap="round" stroke-linejoin="round"/>
<path d="M10 1.31995C8.00002 0.329951 4.23002 -0.260049 3.38002 2.53995C3.25751 2.9503 3.2438 3.38545 3.34022 3.8027C3.43664 4.21995 3.63989 4.60496 3.93002 4.91995C4.72711 5.54259 5.60094 6.06017 6.53002 6.45995" stroke="black" stroke-linecap="round" stroke-linejoin="round"/>
<path d="M0.5 6.5H13.5" stroke="black" stroke-linecap="round" stroke-linejoin="round"/>
</g>
<defs>
<clipPath id="clip0_2002_457">
<rect width="14" height="14" fill="white"/>
</clipPath>
</defs>
</svg>
