<svg width="15" height="14" viewBox="0 0 15 14" fill="none" xmlns="http://www.w3.org/2000/svg">
<g clip-path="url(#clip0_2002_670)">
<path d="M1.41001 12.56L1.00001 5.56001C0.991488 5.4895 0.998085 5.41797 1.01937 5.3502C1.04065 5.28243 1.07612 5.21998 1.12343 5.16699C1.17074 5.11401 1.22879 5.07171 1.29373 5.04292C1.35866 5.01413 1.42898 4.9995 1.50001 5.00001H6.11001C6.2221 5.00071 6.33083 5.0383 6.4194 5.10699C6.50797 5.17568 6.57145 5.27163 6.60001 5.38001L7.00001 7.00001H13.5C13.5692 6.99979 13.6376 7.01392 13.7011 7.04151C13.7645 7.0691 13.8215 7.10955 13.8685 7.16031C13.9155 7.21106 13.9514 7.27101 13.9741 7.33637C13.9967 7.40172 14.0055 7.47107 14 7.54001L13.61 12.54C13.5899 12.7911 13.4757 13.0254 13.2903 13.1959C13.1049 13.3665 12.8619 13.4608 12.61 13.46H2.41001C2.16125 13.4613 1.92095 13.3697 1.73604 13.2033C1.55113 13.0369 1.43489 12.8075 1.41001 12.56Z" stroke="black" stroke-linecap="round" stroke-linejoin="round"/>
<path d="M4 3V1C4 0.867392 4.05268 0.740215 4.14645 0.646447C4.24021 0.552678 4.36739 0.5 4.5 0.5H13C13.1326 0.5 13.2598 0.552678 13.3536 0.646447C13.4473 0.740215 13.5 0.867392 13.5 1V5" stroke="black" stroke-linecap="round" stroke-linejoin="round"/>
<path d="M8 3H11" stroke="black" stroke-linecap="round" stroke-linejoin="round"/>
</g>
<defs>
<clipPath id="clip0_2002_670">
<rect width="14" height="14" fill="white" transform="translate(0.5)"/>
</clipPath>
</defs>
</svg>
