<svg width="15" height="14" viewBox="0 0 15 14" fill="none" xmlns="http://www.w3.org/2000/svg">
<g clip-path="url(#clip0_2002_569)">
<path d="M7.99 1.08992L9.58 4.29992C9.61617 4.38139 9.67305 4.45197 9.74499 4.5046C9.81693 4.55724 9.90141 4.59011 9.99 4.59992L13.5 5.11992C13.6016 5.13298 13.6974 5.17469 13.7763 5.24017C13.8551 5.30566 13.9136 5.39221 13.9451 5.48973C13.9765 5.58725 13.9796 5.69171 13.9539 5.7909C13.9282 5.89009 13.8748 5.97993 13.8 6.04992L11.27 8.55992C11.2054 8.62025 11.157 8.69576 11.129 8.77959C11.1011 8.86343 11.0945 8.95291 11.11 9.03992L11.72 12.5699C11.7377 12.6714 11.7265 12.7757 11.6878 12.8711C11.6491 12.9665 11.5843 13.0491 11.501 13.1096C11.4176 13.17 11.319 13.2058 11.2163 13.2129C11.1136 13.2201 11.0109 13.1982 10.92 13.1499L7.76 11.4799C7.67909 11.4402 7.59014 11.4195 7.5 11.4195C7.40986 11.4195 7.32092 11.4402 7.24 11.4799L4.08 13.1499C3.98909 13.1982 3.88644 13.2201 3.78373 13.2129C3.68102 13.2058 3.58237 13.17 3.49902 13.1096C3.41566 13.0491 3.35094 12.9665 3.31222 12.8711C3.2735 12.7757 3.26234 12.6714 3.28 12.5699L3.89 8.99992C3.90546 8.91291 3.89892 8.82343 3.87098 8.73959C3.84303 8.65576 3.79457 8.58025 3.73 8.51992L1.17 6.04992C1.09427 5.97802 1.041 5.88569 1.01667 5.78413C0.992331 5.68258 0.997966 5.57614 1.03289 5.47772C1.06781 5.3793 1.13053 5.29311 1.21343 5.22961C1.29634 5.1661 1.39588 5.128 1.5 5.11992L5.01 4.59992C5.0986 4.59011 5.18308 4.55724 5.25502 4.5046C5.32695 4.45197 5.38384 4.38139 5.42 4.29992L7.01 1.08992C7.0533 0.996428 7.12244 0.917275 7.20927 0.861803C7.29609 0.806331 7.39697 0.776855 7.5 0.776855C7.60303 0.776855 7.70392 0.806331 7.79074 0.861803C7.87756 0.917275 7.9467 0.996428 7.99 1.08992V1.08992Z" stroke="black" stroke-linecap="round" stroke-linejoin="round"/>
</g>
<defs>
<clipPath id="clip0_2002_569">
<rect width="14" height="14" fill="white" transform="translate(0.5)"/>
</clipPath>
</defs>
</svg>
