<svg width="15" height="14" viewBox="0 0 15 14" fill="none" xmlns="http://www.w3.org/2000/svg">
<g clip-path="url(#clip0_2002_755)">
<path d="M13.16 1.8699L12.32 4.3499C12.291 4.40726 12.2759 4.47063 12.2759 4.5349C12.2759 4.59917 12.291 4.66255 12.32 4.7199L13.89 6.8199C13.9351 6.88001 13.9624 6.95161 13.9687 7.0265C13.975 7.1014 13.96 7.17655 13.9256 7.24335C13.8912 7.31015 13.8386 7.36589 13.7739 7.40419C13.7093 7.44249 13.6351 7.4618 13.56 7.4599H10.94C10.8758 7.46179 10.8128 7.47804 10.7557 7.50746C10.6986 7.53688 10.6488 7.57872 10.61 7.6299L9.14998 9.7299C9.10716 9.79129 9.04798 9.83943 8.97916 9.86885C8.91034 9.89827 8.83464 9.90779 8.76068 9.89633C8.68671 9.88488 8.61745 9.85289 8.56076 9.80403C8.50407 9.75516 8.46222 9.69137 8.43998 9.6199L7.65998 7.1199C7.64219 7.05811 7.609 7.00184 7.56352 6.95636C7.51805 6.91089 7.46178 6.8777 7.39998 6.8599L4.89998 6.0799C4.82852 6.05766 4.76473 6.01582 4.71586 5.95913C4.66699 5.90244 4.63501 5.83317 4.62355 5.75921C4.61209 5.68525 4.62161 5.60955 4.65104 5.54073C4.68046 5.47191 4.7286 5.41272 4.78998 5.3699L6.92998 3.8599C6.98117 3.82109 7.02301 3.7713 7.05243 3.71419C7.08185 3.65709 7.0981 3.59411 7.09998 3.5299V0.909903C7.10278 0.841088 7.12329 0.77416 7.15954 0.715598C7.19579 0.657037 7.24654 0.608827 7.30689 0.575637C7.36723 0.542446 7.43513 0.525399 7.504 0.526147C7.57286 0.526894 7.64037 0.54541 7.69998 0.579903L9.79998 2.1499C9.8533 2.18693 9.91464 2.21077 9.97896 2.21946C10.0433 2.22816 10.1088 2.22145 10.17 2.1999L12.65 1.3599C12.7211 1.33491 12.7978 1.33052 12.8714 1.34724C12.9449 1.36397 13.0121 1.40113 13.0655 1.45443C13.1188 1.50774 13.1559 1.57503 13.1726 1.64853C13.1894 1.72204 13.185 1.79878 13.16 1.8699V1.8699Z" stroke="black" stroke-linecap="round" stroke-linejoin="round"/>
<path d="M7.55999 6.95996L1.01999 13.5" stroke="black" stroke-linecap="round" stroke-linejoin="round"/>
</g>
<defs>
<clipPath id="clip0_2002_755">
<rect width="14" height="14" fill="white" transform="translate(0.519989)"/>
</clipPath>
</defs>
</svg>
