<svg width="14" height="14" viewBox="0 0 14 14" fill="none" xmlns="http://www.w3.org/2000/svg">
<g clip-path="url(#clip0_2002_563)">
<path d="M7 8C8.38071 8 9.5 6.88071 9.5 5.5C9.5 4.11929 8.38071 3 7 3C5.61929 3 4.5 4.11929 4.5 5.5C4.5 6.88071 5.61929 8 7 8Z" stroke="black" stroke-linecap="round" stroke-linejoin="round"/>
<path d="M2.73001 11.9C3.17625 11.1675 3.80342 10.5621 4.55122 10.1421C5.29902 9.72198 6.1423 9.50134 7.00001 9.50134C7.85772 9.50134 8.70101 9.72198 9.4488 10.1421C10.1966 10.5621 10.8238 11.1675 11.27 11.9" stroke="black" stroke-linecap="round" stroke-linejoin="round"/>
<path d="M7 13.5C10.5899 13.5 13.5 10.5899 13.5 7C13.5 3.41015 10.5899 0.5 7 0.5C3.41015 0.5 0.5 3.41015 0.5 7C0.5 10.5899 3.41015 13.5 7 13.5Z" stroke="black" stroke-linecap="round" stroke-linejoin="round"/>
</g>
<defs>
<clipPath id="clip0_2002_563">
<rect width="14" height="14" fill="white"/>
</clipPath>
</defs>
</svg>
