<svg width="15" height="14" viewBox="0 0 15 14" fill="none" xmlns="http://www.w3.org/2000/svg">
<g clip-path="url(#clip0_2002_737)">
<path d="M12.98 1.54006C12.6527 1.2099 12.2633 0.947826 11.8342 0.768978C11.4051 0.590129 10.9449 0.498047 10.48 0.498047C10.0151 0.498047 9.55485 0.590129 9.12575 0.768978C8.69666 0.947826 8.30725 1.2099 7.97999 1.54006L3.38999 6.13006C2.93522 6.5841 2.63827 7.17216 2.54285 7.80766C2.44744 8.44316 2.55861 9.0925 2.85999 9.66006L1.30999 11.2101C1.12374 11.3974 1.0192 11.6509 1.0192 11.9151C1.0192 12.1792 1.12374 12.4327 1.30999 12.6201L1.89999 13.2101C2.08735 13.3963 2.3408 13.5009 2.60499 13.5009C2.86917 13.5009 3.12263 13.3963 3.30999 13.2101L4.85999 11.6601C5.42755 11.9614 6.07689 12.0726 6.71239 11.9772C7.34789 11.8818 7.93595 11.5848 8.38999 11.1301L12.98 6.54006C13.3102 6.21281 13.5722 5.82339 13.7511 5.3943C13.9299 4.96521 14.022 4.50494 14.022 4.04006C14.022 3.57519 13.9299 3.11492 13.7511 2.68583C13.5722 2.25674 13.3102 1.86732 12.98 1.54006V1.54006Z" stroke="black" stroke-linecap="round" stroke-linejoin="round"/>
<path d="M5.01999 1.5L13.02 9.5" stroke="black" stroke-linecap="round" stroke-linejoin="round"/>
</g>
<defs>
<clipPath id="clip0_2002_737">
<rect width="14" height="14" fill="white" transform="translate(0.519989)"/>
</clipPath>
</defs>
</svg>
