<svg width="14" height="14" viewBox="0 0 14 14" fill="none" xmlns="http://www.w3.org/2000/svg">
<g clip-path="url(#clip0_2002_318)">
<path d="M7 9.5C8.38071 9.5 9.5 8.38071 9.5 7C9.5 5.61929 8.38071 4.5 7 4.5C5.61929 4.5 4.5 5.61929 4.5 7C4.5 8.38071 5.61929 9.5 7 9.5Z" stroke="black" stroke-linecap="round" stroke-linejoin="round"/>
<path d="M2.73 13.4C3.17624 12.6675 3.8034 12.0621 4.5512 11.6421C5.299 11.222 6.14229 11.0013 7 11.0013C7.8577 11.0013 8.70099 11.222 9.44879 11.6421C10.1966 12.0621 10.8238 12.6675 11.27 13.4" stroke="black" stroke-linecap="round" stroke-linejoin="round"/>
<path d="M13.5 6.94C13.5009 6.8012 13.473 6.66372 13.4179 6.53632C13.3628 6.40892 13.2818 6.29438 13.18 6.2L6.99999 0.5L0.819992 6.2C0.718217 6.29438 0.637205 6.40892 0.582112 6.53632C0.52702 6.66372 0.499053 6.8012 0.499992 6.94V12.5C0.499992 12.7652 0.605349 13.0196 0.792886 13.2071C0.980422 13.3946 1.23478 13.5 1.49999 13.5H12.5C12.7652 13.5 13.0196 13.3946 13.2071 13.2071C13.3946 13.0196 13.5 12.7652 13.5 12.5V6.94Z" stroke="black" stroke-linecap="round" stroke-linejoin="round"/>
</g>
<defs>
<clipPath id="clip0_2002_318">
<rect width="14" height="14" fill="white"/>
</clipPath>
</defs>
</svg>
