<svg width="15" height="14" viewBox="0 0 15 14" fill="none" xmlns="http://www.w3.org/2000/svg">
<path d="M12.02 8V12.5C12.02 12.7652 11.9146 13.0196 11.7271 13.2071C11.5396 13.3946 11.2852 13.5 11.02 13.5H4.01999C3.75477 13.5 3.50042 13.3946 3.31288 13.2071C3.12535 13.0196 3.01999 12.7652 3.01999 12.5V8C3.01999 7.33696 3.28338 6.70107 3.75222 6.23223C4.22106 5.76339 4.85695 5.5 5.51999 5.5H9.51999C10.183 5.5 10.8189 5.76339 11.2878 6.23223C11.7566 6.70107 12.02 7.33696 12.02 8V8Z" stroke="black" stroke-linecap="round" stroke-linejoin="round"/>
<path d="M8.01999 0.5H7.01999L5.51999 5.5H9.51999L8.01999 0.5Z" stroke="black" stroke-linecap="round" stroke-linejoin="round"/>
<path d="M5.51999 11H9.51999" stroke="black" stroke-linecap="round" stroke-linejoin="round"/>
<path d="M3.01999 8.5H12.02" stroke="black" stroke-linecap="round" stroke-linejoin="round"/>
</svg>
