<svg width="14" height="14" viewBox="0 0 14 14" fill="none" xmlns="http://www.w3.org/2000/svg">
<g clip-path="url(#clip0_2002_467)">
<path d="M2.18002 5.44C2.30926 5.53202 2.41475 5.65346 2.48778 5.79431C2.56081 5.93515 2.59928 6.09135 2.60002 6.25C2.62028 6.39508 2.60483 6.54291 2.555 6.68067C2.50517 6.81842 2.42247 6.94193 2.31408 7.04047C2.20569 7.13901 2.07488 7.2096 1.93301 7.24611C1.79115 7.28263 1.64251 7.28396 1.50002 7.25C0.540017 7 0.0900167 5.57 1.00002 3.25" stroke="black" stroke-linecap="round" stroke-linejoin="round"/>
<path d="M5.69999 5.44C5.83108 5.53092 5.93852 5.65189 6.01332 5.7928C6.08812 5.93371 6.12813 6.09048 6.12999 6.25C6.15026 6.39508 6.13481 6.54291 6.08498 6.68067C6.03515 6.81842 5.95245 6.94193 5.84406 7.04047C5.73566 7.13901 5.60486 7.2096 5.46299 7.24611C5.32113 7.28263 5.17249 7.28396 5.02999 7.25C4.02999 7.06 3.61999 5.59 4.49999 3.25" stroke="black" stroke-linecap="round" stroke-linejoin="round"/>
<path d="M11.82 8.55999C11.6908 8.46797 11.5853 8.34652 11.5122 8.20568C11.4392 8.06483 11.4007 7.90864 11.4 7.74999C11.3797 7.60491 11.3952 7.45707 11.445 7.31932C11.4949 7.18156 11.5776 7.05806 11.686 6.95952C11.7943 6.86098 11.9252 6.79039 12.067 6.75387C12.2089 6.71736 12.3575 6.71602 12.5 6.74999C13.5 6.93999 13.91 8.40999 13.02 10.75" stroke="black" stroke-linecap="round" stroke-linejoin="round"/>
<path d="M8.30005 8.55999C8.16896 8.46906 8.06152 8.34809 7.98672 8.20718C7.91192 8.06627 7.87191 7.90951 7.87005 7.74999C7.84978 7.60491 7.86523 7.45707 7.91506 7.31932C7.96489 7.18156 8.04759 7.05806 8.15598 6.95952C8.26438 6.86098 8.39518 6.79039 8.53705 6.75387C8.67891 6.71736 8.82755 6.71602 8.97005 6.74999C9.97005 6.93999 10.38 8.40999 9.50005 10.75" stroke="black" stroke-linecap="round" stroke-linejoin="round"/>
</g>
<defs>
<clipPath id="clip0_2002_467">
<rect width="14" height="14" fill="white"/>
</clipPath>
</defs>
</svg>
