<svg width="14" height="14" viewBox="0 0 14 14" fill="none" xmlns="http://www.w3.org/2000/svg">
<path d="M4.07999 7.25C3.7103 6.6484 3.51459 5.95611 3.51459 5.25C3.51459 4.54389 3.7103 3.8516 4.07999 3.25" stroke="black" stroke-linecap="round" stroke-linejoin="round"/>
<path d="M4.45001 7.42004C4.72615 7.42004 4.95001 7.19619 4.95001 6.92004C4.95001 6.6439 4.72615 6.42004 4.45001 6.42004C4.17387 6.42004 3.95001 6.6439 3.95001 6.92004C3.95001 7.19619 4.17387 7.42004 4.45001 7.42004Z" stroke="black" stroke-linecap="round" stroke-linejoin="round"/>
<path d="M1.06998 7.25C0.70029 6.6484 0.504578 5.95611 0.504578 5.25C0.504578 4.54389 0.70029 3.8516 1.06998 3.25" stroke="black" stroke-linecap="round" stroke-linejoin="round"/>
<path d="M1.44 7.42004C1.71614 7.42004 1.94 7.19619 1.94 6.92004C1.94 6.6439 1.71614 6.42004 1.44 6.42004C1.16386 6.42004 0.940002 6.6439 0.940002 6.92004C0.940002 7.19619 1.16386 7.42004 1.44 7.42004Z" stroke="black" stroke-linecap="round" stroke-linejoin="round"/>
<path d="M9.91998 6.75C10.2897 7.3516 10.4854 8.04389 10.4854 8.75C10.4854 9.45611 10.2897 10.1484 9.91998 10.75" stroke="black" stroke-linecap="round" stroke-linejoin="round"/>
<path d="M9.54999 7.57996C9.82613 7.57996 10.05 7.3561 10.05 7.07996C10.05 6.80381 9.82613 6.57996 9.54999 6.57996C9.27385 6.57996 9.04999 6.80381 9.04999 7.07996C9.04999 7.3561 9.27385 7.57996 9.54999 7.57996Z" stroke="black" stroke-linecap="round" stroke-linejoin="round"/>
<path d="M12.93 6.75C13.2997 7.3516 13.4954 8.04389 13.4954 8.75C13.4954 9.45611 13.2997 10.1484 12.93 10.75" stroke="black" stroke-linecap="round" stroke-linejoin="round"/>
<path d="M12.56 7.57996C12.8361 7.57996 13.06 7.3561 13.06 7.07996C13.06 6.80381 12.8361 6.57996 12.56 6.57996C12.2839 6.57996 12.06 6.80381 12.06 7.07996C12.06 7.3561 12.2839 7.57996 12.56 7.57996Z" stroke="black" stroke-linecap="round" stroke-linejoin="round"/>
</svg>
