<svg width="14" height="14" viewBox="0 0 14 14" fill="none" xmlns="http://www.w3.org/2000/svg">
<g clip-path="url(#clip0_2002_477)">
<path d="M10.5 8.00016C10.5023 7.37609 10.3378 6.76274 10.0233 6.22366C9.70891 5.68458 9.25607 5.23937 8.71171 4.93417C8.16735 4.62896 7.55129 4.47486 6.92735 4.48782C6.30341 4.50078 5.69428 4.68033 5.16306 5.00788C4.63185 5.33542 4.19788 5.79905 3.9061 6.35072C3.61433 6.90239 3.47537 7.52204 3.50362 8.14548C3.53187 8.76892 3.72629 9.37347 4.06676 9.89649C4.40723 10.4195 4.88135 10.842 5.44001 11.1202V12.8402C5.44262 12.9419 5.48485 13.0385 5.55771 13.1095C5.63057 13.1805 5.72828 13.2202 5.83001 13.2202H8.17001C8.27173 13.2202 8.36944 13.1805 8.4423 13.1095C8.51516 13.0385 8.5574 12.9419 8.56001 12.8402V11.0902C9.13625 10.8033 9.62222 10.3631 9.96449 9.81794C10.3068 9.27279 10.4921 8.64381 10.5 8.00016V8.00016Z" stroke="black" stroke-linecap="round" stroke-linejoin="round"/>
<path d="M7 0.810059V2.31006" stroke="black" stroke-linecap="round" stroke-linejoin="round"/>
<path d="M11 2.23999L9.94 3.30999" stroke="black" stroke-linecap="round" stroke-linejoin="round"/>
<path d="M13.28 5.34009H11.78" stroke="black" stroke-linecap="round" stroke-linejoin="round"/>
<path d="M3 2.23999L4.06 3.30999" stroke="black" stroke-linecap="round" stroke-linejoin="round"/>
<path d="M0.720001 5.34009H2.22" stroke="black" stroke-linecap="round" stroke-linejoin="round"/>
</g>
<defs>
<clipPath id="clip0_2002_477">
<rect width="14" height="14" fill="white"/>
</clipPath>
</defs>
</svg>
