<svg width="15" height="14" viewBox="0 0 15 14" fill="none" xmlns="http://www.w3.org/2000/svg">
<g clip-path="url(#clip0_2002_343)">
<path d="M5 11.5L5.5 10.5" stroke="black" stroke-linecap="round" stroke-linejoin="round"/>
<path d="M9.5 11.5L10 10.5" stroke="black" stroke-linecap="round" stroke-linejoin="round"/>
<path d="M6.75 13.5L7.25 12.5" stroke="black" stroke-linecap="round" stroke-linejoin="round"/>
<path d="M2.25 13.5L2.75 12.5" stroke="black" stroke-linecap="round" stroke-linejoin="round"/>
<path d="M11.25 13.5L11.75 12.5" stroke="black" stroke-linecap="round" stroke-linejoin="round"/>
<path d="M11.75 7.9999C12.1053 8.00094 12.4568 7.92623 12.7809 7.78076C13.1051 7.63528 13.3945 7.42237 13.6299 7.15623C13.8653 6.89008 14.0413 6.57682 14.1461 6.23732C14.2509 5.89781 14.2822 5.53987 14.2377 5.18734C14.1933 4.83482 14.0742 4.49581 13.8885 4.19292C13.7027 3.89003 13.4545 3.63022 13.1605 3.4308C12.8664 3.23138 12.5332 3.09693 12.1831 3.03643C11.833 2.97592 11.474 2.99074 11.13 3.0799C10.9301 2.33632 10.4906 1.6794 9.87954 1.21092C9.26848 0.742434 8.51999 0.488525 7.75001 0.488525C6.98003 0.488525 6.23154 0.742434 5.62048 1.21092C5.00942 1.6794 4.5699 2.33632 4.37001 3.0799C4.02607 2.99074 3.66707 2.97592 3.31694 3.03643C2.96682 3.09693 2.63362 3.23138 2.33955 3.4308C2.04547 3.63022 1.79729 3.89003 1.61153 4.19292C1.42577 4.49581 1.30672 4.83482 1.26229 5.18734C1.21787 5.53987 1.2491 5.89781 1.3539 6.23732C1.45871 6.57682 1.63468 6.89008 1.87008 7.15623C2.10548 7.42237 2.39492 7.63528 2.71908 7.78076C3.04325 7.92623 3.3947 8.00094 3.75001 7.9999H11.75Z" stroke="black" stroke-linecap="round" stroke-linejoin="round"/>
</g>
<defs>
<clipPath id="clip0_2002_343">
<rect width="14" height="14" fill="white" transform="translate(0.75)"/>
</clipPath>
</defs>
</svg>
