<svg width="14" height="14" viewBox="0 0 14 14" fill="none" xmlns="http://www.w3.org/2000/svg">
<g clip-path="url(#clip0_2002_663)">
<path d="M4 6.49011L0.79 9.67011C0.696272 9.76308 0.621877 9.87368 0.571109 9.99554C0.52034 10.1174 0.494202 10.2481 0.494202 10.3801C0.494202 10.5121 0.52034 10.6428 0.571109 10.7647C0.621877 10.8865 0.696272 10.9971 0.79 11.0901L2.91 13.2101C3.00296 13.3038 3.11356 13.3782 3.23542 13.429C3.35728 13.4798 3.48799 13.5059 3.62 13.5059C3.75201 13.5059 3.88272 13.4798 4.00458 13.429C4.12644 13.3782 4.23704 13.3038 4.33 13.2101L7.51 10.0001" stroke="black" stroke-linecap="round" stroke-linejoin="round"/>
<path d="M9.99999 7.51006L13.18 4.33006C13.2737 4.2371 13.3481 4.1265 13.3989 4.00464C13.4497 3.88278 13.4758 3.75207 13.4758 3.62006C13.4758 3.48805 13.4497 3.35734 13.3989 3.23548C13.3481 3.11363 13.2737 3.00302 13.18 2.91006L11.09 0.790061C10.997 0.696333 10.8864 0.621938 10.7646 0.57117C10.6427 0.520401 10.512 0.494263 10.38 0.494263C10.248 0.494263 10.1173 0.520401 9.99541 0.57117C9.87355 0.621938 9.76295 0.696333 9.66999 0.790061L6.48999 4.00006" stroke="black" stroke-linecap="round" stroke-linejoin="round"/>
<path d="M9 5L5 9" stroke="black" stroke-linecap="round" stroke-linejoin="round"/>
</g>
<defs>
<clipPath id="clip0_2002_663">
<rect width="14" height="14" fill="white"/>
</clipPath>
</defs>
</svg>
