<svg width="14" height="14" viewBox="0 0 14 14" fill="none" xmlns="http://www.w3.org/2000/svg">
<g clip-path="url(#clip0_2002_636)">
<path d="M0.5 13.5L2.5 11.5" stroke="black" stroke-linecap="round" stroke-linejoin="round"/>
<path d="M4.71 12.2901C4.61704 12.3838 4.50643 12.4582 4.38457 12.509C4.26272 12.5598 4.13201 12.5859 4 12.5859C3.86799 12.5859 3.73728 12.5598 3.61542 12.509C3.49356 12.4582 3.38296 12.3838 3.29 12.2901L1.71 10.7101C1.61627 10.6171 1.54188 10.5065 1.49111 10.3847C1.44034 10.2628 1.4142 10.1321 1.4142 10.0001C1.4142 9.86809 1.44034 9.73738 1.49111 9.61552C1.54188 9.49366 1.61627 9.38306 1.71 9.2901L9.88 1.1201C10.2778 0.722275 10.8174 0.498779 11.38 0.498779C11.9426 0.498779 12.4822 0.722275 12.88 1.1201C13.2778 1.51792 13.5013 2.05749 13.5013 2.6201C13.5013 3.18271 13.2778 3.72227 12.88 4.1201L4.71 12.2901Z" stroke="black" stroke-linecap="round" stroke-linejoin="round"/>
<path d="M11.5 5.5001L7.21 1.21011C7.11704 1.11638 7.00644 1.04198 6.88458 0.991214C6.76272 0.940445 6.63201 0.914307 6.5 0.914307C6.36799 0.914307 6.23728 0.940445 6.11542 0.991214C5.99356 1.04198 5.88296 1.11638 5.79 1.21011L2.5 4.5001" stroke="black" stroke-linecap="round" stroke-linejoin="round"/>
</g>
<defs>
<clipPath id="clip0_2002_636">
<rect width="14" height="14" fill="white"/>
</clipPath>
</defs>
</svg>
