<svg width="14" height="14" viewBox="0 0 14 14" fill="none" xmlns="http://www.w3.org/2000/svg">
<path fill-rule="evenodd" clip-rule="evenodd" d="M2.98573e-06 1.5C2.98573e-06 0.671576 0.671576 2.98573e-06 1.5 2.98573e-06H12.5C13.3285 2.98573e-06 14 0.67158 14 1.5V12.5C14 13.3284 13.3284 14 12.5 14H1.5C0.67158 14 2.98573e-06 13.3285 2.98573e-06 12.5V1.5ZM1.5 1C1.22386 1 1 1.22386 1 1.5V12.5C1 12.7762 1.22386 13 1.5 13H12.5C12.7762 13 13 12.7762 13 12.5V1.5C13 1.22386 12.7762 1 12.5 1H1.5Z" fill="black"/>
<path fill-rule="evenodd" clip-rule="evenodd" d="M6.33787 0.131426C6.54142 0.318022 6.55518 0.634306 6.36858 0.837865L0.86858 6.83787C0.681984 7.04142 0.3657 7.05518 0.162141 6.86858C-0.0414189 6.68198 -0.0551703 6.3657 0.131426 6.16214L5.63143 0.162141C5.81802 -0.0414189 6.13431 -0.0551703 6.33787 0.131426Z" fill="black"/>
<path fill-rule="evenodd" clip-rule="evenodd" d="M7.66214 0.131426C7.8657 -0.0551703 8.18198 -0.0414189 8.36858 0.162141L13.8686 6.16214C14.0552 6.3657 14.0414 6.68198 13.8379 6.86858C13.6343 7.05518 13.318 7.04142 13.1314 6.83787L7.63143 0.837865C7.44483 0.634306 7.45858 0.318022 7.66214 0.131426Z" fill="black"/>
<path fill-rule="evenodd" clip-rule="evenodd" d="M0.162141 7.13143C0.3657 6.94483 0.681984 6.95858 0.86858 7.16214L6.36858 13.1621C6.55518 13.3657 6.54142 13.682 6.33787 13.8686C6.13431 14.0552 5.81802 14.0414 5.63143 13.8379L0.131426 7.83787C-0.0551703 7.63431 -0.0414189 7.31802 0.162141 7.13143Z" fill="black"/>
<path fill-rule="evenodd" clip-rule="evenodd" d="M13.8379 7.13143C14.0414 7.31802 14.0552 7.63431 13.8686 7.83787L8.36858 13.8379C8.18198 14.0414 7.8657 14.0552 7.66214 13.8686C7.45858 13.682 7.44483 13.3657 7.63143 13.1621L13.1314 7.16214C13.318 6.95858 13.6343 6.94483 13.8379 7.13143Z" fill="black"/>
</svg>
