<svg width="15" height="14" viewBox="0 0 15 14" fill="none" xmlns="http://www.w3.org/2000/svg">
<g clip-path="url(#clip0_2002_799)">
<path d="M10.88 3.48003L8.01 0.610025C7.97639 0.574936 7.93603 0.547012 7.89135 0.527935C7.84666 0.508858 7.79858 0.499023 7.75 0.499023C7.70141 0.499023 7.65333 0.508858 7.60864 0.527935C7.56396 0.547012 7.5236 0.574936 7.49 0.610025L4.62 3.48003" stroke="black" stroke-linecap="round" stroke-linejoin="round"/>
<path d="M10.88 10.52L8.01 13.39C7.97639 13.4251 7.93603 13.453 7.89135 13.4721C7.84666 13.4912 7.79858 13.501 7.75 13.501C7.70141 13.501 7.65333 13.4912 7.60864 13.4721C7.56396 13.453 7.5236 13.4251 7.49 13.39L4.62 10.52" stroke="black" stroke-linecap="round" stroke-linejoin="round"/>
<path d="M1.25 7H14.25" stroke="black" stroke-linecap="round" stroke-linejoin="round"/>
</g>
<defs>
<clipPath id="clip0_2002_799">
<rect width="14" height="14" fill="white" transform="translate(0.75)"/>
</clipPath>
</defs>
</svg>
