<svg width="15" height="14" viewBox="0 0 15 14" fill="none" xmlns="http://www.w3.org/2000/svg">
<g clip-path="url(#clip0_2002_653)">
<path d="M9.32998 12.07C8.87823 12.5217 8.34193 12.8801 7.75169 13.1246C7.16146 13.3691 6.52885 13.4949 5.88998 13.4949C4.59973 13.4949 3.36232 12.9823 2.44998 12.07C1.53764 11.1577 1.02509 9.92025 1.02509 8.63C1.02509 7.33975 1.53764 6.10234 2.44998 5.19L7.13998 0.5L9.32998 2.69L5.02998 7C4.75358 7.33984 4.61301 7.7701 4.63547 8.20758C4.65793 8.64506 4.84181 9.05867 5.15156 9.36842C5.46131 9.67817 5.87492 9.86205 6.3124 9.88451C6.74988 9.90697 7.18014 9.7664 7.51998 9.49L11.82 5.19L14.02 7.38L9.32998 12.07Z" stroke="black" stroke-linecap="round" stroke-linejoin="round"/>
<path d="M9.70999 7.31006L11.9 9.50006" stroke="black" stroke-linecap="round" stroke-linejoin="round"/>
<path d="M5.01999 2.62012L7.20999 4.81012" stroke="black" stroke-linecap="round" stroke-linejoin="round"/>
</g>
<defs>
<clipPath id="clip0_2002_653">
<rect width="14" height="14" fill="white" transform="translate(0.519989)"/>
</clipPath>
</defs>
</svg>
