<svg width="14" height="14" viewBox="0 0 14 14" fill="none" xmlns="http://www.w3.org/2000/svg">
<path fill-rule="evenodd" clip-rule="evenodd" d="M1.14645 1.14645C1.24022 1.05268 1.36739 1 1.5 1ZM0.439341 0.439339C0.720644 0.158036 1.10217 0 1.5 0H3.5C3.77614 0 4 0.223858 4 0.5C4 0.776142 3.77614 1 3.5 1H1.5M10 0.5C10 0.223858 10.2239 0 10.5 0H12.5C12.8978 0 13.2794 0.158017 13.5607 0.439374L13.2081 0.791854L13.5607 0.439374C13.8419 0.720628 14 1.10212 14 1.5V3.5C14 3.77614 13.7761 4 13.5 4C13.2239 4 13 3.77614 13 3.5V1.5C13 1.36744 12.9473 1.24023 12.8535 1.14641C12.7598 1.0527 12.6326 1 12.5 1H10.5C10.2239 1 10 0.776142 10 0.5ZM0.439341 0.439339L0.439339 0.439341ZM1.14645 1.14645C1.05268 1.24022 1 1.36739 1 1.5V3.5C1 3.77614 0.776142 4 0.5 4C0.223858 4 0 3.77614 0 3.5V1.5C0 1.10217 0.158036 0.720644 0.439339 0.439341M3 7C3 4.79086 4.79086 3 7 3C9.20914 3 11 4.79086 11 7C11 9.20914 9.20914 11 7 11C4.79086 11 3 9.20914 3 7ZM7 4C5.34314 4 4 5.34314 4 7C4 8.65686 5.34314 10 7 10C8.65686 10 10 8.65686 10 7C10 5.34314 8.65686 4 7 4ZM0.5 10C0.776142 10 1 10.2239 1 10.5V12.5C1 12.6326 1.0527 12.7598 1.14641 12.8535L0.792893 13.2071L1.14641 12.8535C1.24023 12.9473 1.36744 13 1.5 13H3.5C3.77614 13 4 13.2239 4 13.5C4 13.7761 3.77614 14 3.5 14H1.5C1.10212 14 0.720628 13.8419 0.439374 13.5607L0.790821 13.2092L0.439374 13.5607C0.158017 13.2794 0 12.8978 0 12.5V10.5C0 10.2239 0.223858 10 0.5 10ZM13.5 10C13.7761 10 14 10.2239 14 10.5V12.5C14 12.8978 13.8419 13.2794 13.5607 13.5607C13.2794 13.8419 12.8978 14 12.5 14H10.5C10.2239 14 10 13.7761 10 13.5C10 13.2239 10.2239 13 10.5 13H12.5C12.6326 13 12.7598 12.9473 12.8535 12.8535C12.9473 12.7598 13 12.6326 13 12.5V10.5C13 10.2239 13.2239 10 13.5 10Z" fill="black"/>
</svg>
