<svg width="14" height="14" viewBox="0 0 14 14" fill="none" xmlns="http://www.w3.org/2000/svg">
<g clip-path="url(#clip0_2002_539)">
<path d="M13.5 7C13.5 8.72391 12.8152 10.3772 11.5962 11.5962C10.3772 12.8152 8.72391 13.5 7 13.5C5.27609 13.5 3.62279 12.8152 2.40381 11.5962C1.18482 10.3772 0.5 8.72391 0.5 7" stroke="black" stroke-linecap="round" stroke-linejoin="round"/>
<path d="M13 4.39C12.8011 3.92708 12.5458 3.49045 12.24 3.09C11.9503 2.68889 11.6147 2.32307 11.24 2" stroke="black" stroke-linecap="round" stroke-linejoin="round"/>
<path d="M1.05 4.39C1.24895 3.92708 1.50421 3.49045 1.81 3.09C2.11212 2.68662 2.46125 2.32071 2.85 2" stroke="black" stroke-linecap="round" stroke-linejoin="round"/>
<path d="M8.5 0.670069C7.51285 0.44331 6.48715 0.44331 5.5 0.670069" stroke="black" stroke-linecap="round" stroke-linejoin="round"/>
</g>
<defs>
<clipPath id="clip0_2002_539">
<rect width="14" height="14" fill="white"/>
</clipPath>
</defs>
</svg>
