<svg width="15" height="14" viewBox="0 0 15 14" fill="none" xmlns="http://www.w3.org/2000/svg">
<g clip-path="url(#clip0_2002_462)">
<path d="M13.52 6.49998C13.5206 5.47184 13.2569 4.4608 12.7544 3.56385C12.2519 2.66691 11.5273 1.91414 10.6501 1.37777C9.77299 0.841402 8.77274 0.539428 7.74532 0.500815C6.71791 0.462203 5.69781 0.688249 4.78289 1.15727C3.86797 1.62629 3.08891 2.32254 2.52047 3.17924C1.95202 4.03594 1.61325 5.02434 1.53666 6.04962C1.46007 7.0749 1.64823 8.10266 2.08309 9.03431C2.51794 9.96596 3.1849 10.7702 4.01999 11.37V12.5C4.01999 12.7652 4.12535 13.0195 4.31288 13.2071C4.50042 13.3946 4.75477 13.5 5.01999 13.5H10.02C10.2852 13.5 10.5396 13.3946 10.7271 13.2071C10.9146 13.0195 11.02 12.7652 11.02 12.5V11.37C11.7931 10.8147 12.4231 10.0835 12.8578 9.23671C13.2925 8.38991 13.5195 7.45184 13.52 6.49998V6.49998Z" stroke="black" stroke-linecap="round" stroke-linejoin="round"/>
<path d="M5.01999 7.5C5.29613 7.5 5.51999 7.27614 5.51999 7C5.51999 6.72386 5.29613 6.5 5.01999 6.5C4.74385 6.5 4.51999 6.72386 4.51999 7C4.51999 7.27614 4.74385 7.5 5.01999 7.5Z" stroke="black" stroke-linecap="round" stroke-linejoin="round"/>
<path d="M10.02 7.5C10.2961 7.5 10.52 7.27614 10.52 7C10.52 6.72386 10.2961 6.5 10.02 6.5C9.74385 6.5 9.51999 6.72386 9.51999 7C9.51999 7.27614 9.74385 7.5 10.02 7.5Z" stroke="black" stroke-linecap="round" stroke-linejoin="round"/>
<path d="M6.51999 11.5V13.5" stroke="black" stroke-linecap="round" stroke-linejoin="round"/>
<path d="M8.51999 11.5V13.5" stroke="black" stroke-linecap="round" stroke-linejoin="round"/>
</g>
<defs>
<clipPath id="clip0_2002_462">
<rect width="14" height="14" fill="white" transform="translate(0.519989)"/>
</clipPath>
</defs>
</svg>
