<svg width="14" height="14" viewBox="0 0 14 14" fill="none" xmlns="http://www.w3.org/2000/svg">
<g clip-path="url(#clip0_2002_464)">
<path d="M11.5 5.00007C11.5055 4.19683 11.296 3.40675 10.8931 2.71185C10.4902 2.01695 9.9086 1.44255 9.20876 1.0483C8.50891 0.654055 7.71628 0.454319 6.91318 0.469834C6.11007 0.485348 5.32575 0.715547 4.64165 1.13653C3.95755 1.55752 3.39861 2.15394 3.02284 2.86389C2.64708 3.57383 2.46819 4.37142 2.50476 5.17384C2.54132 5.97627 2.79201 6.75428 3.23078 7.4271C3.66956 8.09993 4.28043 8.64305 4.99998 9.00007V10.5001C4.99998 10.6327 5.05266 10.7599 5.14643 10.8536C5.2402 10.9474 5.36738 11.0001 5.49998 11.0001H8.49999C8.63259 11.0001 8.75977 10.9474 8.85354 10.8536C8.94731 10.7599 8.99999 10.6327 8.99999 10.5001V9.00007C9.74746 8.6318 10.3774 8.06236 10.8191 7.35574C11.2607 6.64912 11.4965 5.83334 11.5 5.00007V5.00007Z" stroke="black" stroke-linecap="round" stroke-linejoin="round"/>
<path d="M5 13.5H9" stroke="black" stroke-linecap="round" stroke-linejoin="round"/>
</g>
<defs>
<clipPath id="clip0_2002_464">
<rect width="14" height="14" fill="white"/>
</clipPath>
</defs>
</svg>
