<svg width="14" height="14" viewBox="0 0 14 14" fill="none" xmlns="http://www.w3.org/2000/svg">
<g clip-path="url(#clip0_2002_311)">
<path d="M13.5 7H5.5" stroke="black" stroke-linecap="round" stroke-linejoin="round"/>
<path d="M7.5 5L5.5 7L7.5 9" stroke="black" stroke-linecap="round" stroke-linejoin="round"/>
<path d="M12.48 10.5C11.723 11.6846 10.6024 12.5919 9.28611 13.0858C7.96987 13.5796 6.52899 13.6334 5.17959 13.2391C3.83019 12.8447 2.645 12.0236 1.80178 10.8987C0.958565 9.77379 0.502777 8.40584 0.502777 7C0.502777 5.59416 0.958565 4.22622 1.80178 3.10133C2.645 1.97644 3.83019 1.15526 5.17959 0.760932C6.52899 0.366607 7.96987 0.420402 9.28611 0.914249C10.6024 1.40809 11.723 2.31537 12.48 3.5" stroke="black" stroke-linecap="round" stroke-linejoin="round"/>
</g>
<defs>
<clipPath id="clip0_2002_311">
<rect width="14" height="14" fill="white"/>
</clipPath>
</defs>
</svg>
