<svg width="15" height="14" viewBox="0 0 15 14" fill="none" xmlns="http://www.w3.org/2000/svg">
<path d="M6.75003 7C6.74224 5.78472 6.4182 4.59241 5.80977 3.54038C5.20134 2.48834 4.3295 1.61283 3.28003 1C4.06346 0.675752 4.90217 0.505972 5.75003 0.5C7.47394 0.5 9.12724 1.18482 10.3462 2.40381C11.5652 3.62279 12.25 5.27609 12.25 7C12.25 8.72391 11.5652 10.3772 10.3462 11.5962C9.12724 12.8152 7.47394 13.5 5.75003 13.5C4.90217 13.494 4.06346 13.3242 3.28003 13C4.3295 12.3872 5.20134 11.5117 5.80977 10.4596C6.4182 9.40759 6.74224 8.21528 6.75003 7V7Z" stroke="black" stroke-linecap="round" stroke-linejoin="round"/>
</svg>
