<svg width="15" height="14" viewBox="0 0 15 14" fill="none" xmlns="http://www.w3.org/2000/svg">
<g clip-path="url(#clip0_2002_427)">
<path d="M2.01999 2.5C1.75477 2.5 1.50042 2.60536 1.31288 2.79289C1.12535 2.98043 1.01999 3.23478 1.01999 3.5V12.5C1.01999 12.7652 1.12535 13.0196 1.31288 13.2071C1.50042 13.3946 1.75477 13.5 2.01999 13.5H13.02C13.2852 13.5 13.5396 13.3946 13.7271 13.2071C13.9146 13.0196 14.02 12.7652 14.02 12.5V3.5C14.02 3.23478 13.9146 2.98043 13.7271 2.79289C13.5396 2.60536 13.2852 2.5 13.02 2.5H11.02" stroke="black" stroke-linecap="round" stroke-linejoin="round"/>
<path d="M4.01999 0.5V4.5" stroke="black" stroke-linecap="round" stroke-linejoin="round"/>
<path d="M11.02 0.5V4.5" stroke="black" stroke-linecap="round" stroke-linejoin="round"/>
<path d="M4.01999 2.5H9.01999" stroke="black" stroke-linecap="round" stroke-linejoin="round"/>
<path d="M6.96999 5.36999C7.01304 5.25911 7.08859 5.16384 7.18674 5.09666C7.28489 5.02948 7.40105 4.99353 7.51999 4.99353C7.63893 4.99353 7.75509 5.02948 7.85324 5.09666C7.95139 5.16384 8.02694 5.25911 8.06999 5.36999L8.70999 6.99999H10.42C10.5318 7.00852 10.639 7.04822 10.7294 7.11458C10.8198 7.18093 10.8898 7.2713 10.9314 7.37541C10.9731 7.47953 10.9847 7.59324 10.965 7.70363C10.9453 7.81403 10.8951 7.9167 10.82 7.99999L9.30999 9.35999L9.94999 10.64C10.0079 10.7524 10.0276 10.8806 10.0059 11.0051C9.98423 11.1297 9.92246 11.2438 9.82999 11.33C9.73815 11.4173 9.6214 11.4738 9.49596 11.4918C9.37051 11.5097 9.2426 11.4881 9.12999 11.43L7.51999 10.55L5.90999 11.43C5.79738 11.4881 5.66947 11.5097 5.54402 11.4918C5.41858 11.4738 5.30183 11.4173 5.20999 11.33C5.11752 11.2438 5.05575 11.1297 5.03409 11.0051C5.01243 10.8806 5.03206 10.7524 5.08999 10.64L5.72999 9.35999L4.21999 7.99999C4.14491 7.9167 4.09467 7.81403 4.07497 7.70363C4.05527 7.59324 4.06691 7.47953 4.10856 7.37541C4.1502 7.2713 4.2202 7.18093 4.3106 7.11458C4.40099 7.04822 4.50818 7.00852 4.61999 6.99999H6.32999L6.96999 5.36999Z" stroke="black" stroke-linecap="round" stroke-linejoin="round"/>
</g>
<defs>
<clipPath id="clip0_2002_427">
<rect width="14" height="14" fill="white" transform="translate(0.519989)"/>
</clipPath>
</defs>
</svg>
