<svg width="15" height="14" viewBox="0 0 15 14" fill="none" xmlns="http://www.w3.org/2000/svg">
<g clip-path="url(#clip0_2002_699)">
<path d="M7.51999 0.5C5.79608 0.5 4.14278 1.18482 2.92379 2.40381C1.70481 3.62279 1.01999 5.27609 1.01999 7C1.01999 8.72391 1.70481 10.3772 2.92379 11.5962C4.14278 12.8152 5.79608 13.5 7.51999 13.5" stroke="black" stroke-linecap="round" stroke-linejoin="round"/>
<path d="M10.13 1.05005C10.5929 1.24899 11.0295 1.50425 11.43 1.81005C11.8311 2.09971 12.1969 2.43533 12.52 2.81005" stroke="black" stroke-linecap="round" stroke-linejoin="round"/>
<path d="M10.13 13C10.5929 12.801 11.0295 12.5458 11.43 12.24C11.8311 11.9503 12.1969 11.6147 12.52 11.24" stroke="black" stroke-linecap="round" stroke-linejoin="round"/>
<path d="M13.85 5.5C14.0767 6.48715 14.0767 7.51285 13.85 8.5" stroke="black" stroke-linecap="round" stroke-linejoin="round"/>
</g>
<defs>
<clipPath id="clip0_2002_699">
<rect width="14" height="14" fill="white" transform="translate(0.519989)"/>
</clipPath>
</defs>
</svg>
