<svg width="14" height="14" viewBox="0 0 14 14" fill="none" xmlns="http://www.w3.org/2000/svg">
<path fill-rule="evenodd" clip-rule="evenodd" d="M1.20028 1.20028C2.06831 0.332245 3.36758 0 5.04364 0H8.95151C10.6276 0 11.9268 0.332245 12.7949 1.20028C13.6629 2.06831 13.9951 3.36758 13.9951 5.04364V7.64889C13.9951 7.91644 13.7782 8.13334 13.5107 8.13334C13.2431 8.13334 13.0262 7.91644 13.0262 7.64889V5.04364C13.0262 3.46314 12.7072 2.48282 12.1097 1.8854C11.5123 1.28797 10.532 0.968908 8.95151 0.968908H5.04364C3.46314 0.968908 2.48282 1.28797 1.8854 1.8854C1.28797 2.48282 0.968908 3.46314 0.968908 5.04364V8.95151C0.968908 10.532 1.28797 11.5123 1.8854 12.1097C2.48282 12.7072 3.46314 13.0262 5.04364 13.0262H7.64889C7.91644 13.0262 8.13334 13.2431 8.13334 13.5107C8.13334 13.7782 7.91644 13.9951 7.64889 13.9951H5.04364C3.36758 13.9951 2.06831 13.6629 1.20028 12.7949C0.332245 11.9268 0 10.6276 0 8.95151V5.04364C0 3.36758 0.332245 2.06831 1.20028 1.20028Z" fill="black"/>
<path fill-rule="evenodd" clip-rule="evenodd" d="M10.3366 4.9927C10.548 5.15662 10.5866 5.46093 10.4227 5.67239L8.91528 7.61699C8.5292 8.10527 7.81731 8.19432 7.32068 7.81056L7.3173 7.80796L6.12762 6.87179C6.05237 6.81461 5.94734 6.82881 5.89016 6.90257C5.8901 6.90264 5.89021 6.9025 5.89016 6.90257L4.34033 8.91474C4.17706 9.12671 3.87288 9.16619 3.66091 9.00293C3.44894 8.83966 3.40945 8.53548 3.57272 8.32351L5.12331 6.31035C5.50876 5.81152 6.22346 5.72136 6.72121 6.10599L6.72459 6.1086L7.91428 7.04477C7.9903 7.10253 8.09748 7.08768 8.15426 7.01725L9.65689 5.07879C9.82081 4.86732 10.1251 4.82878 10.3366 4.9927ZM11.0279 9.69968C11.0277 9.69993 11.0276 9.70018 11.0275 9.70043L10.8443 10.0733C10.7566 10.2487 10.6176 10.3928 10.4803 10.4957C10.3437 10.5982 10.1652 10.6927 9.96962 10.7253L9.96553 10.7259L9.72024 10.7647C9.50533 10.8008 9.44628 10.8663 9.43416 10.8834C9.43395 10.9042 9.44291 10.9953 9.60192 11.1565C9.60222 11.1568 9.60253 11.1571 9.60283 11.1574L9.82872 11.3833L9.83593 11.3907C9.97959 11.5406 10.0704 11.7318 10.1199 11.9063C10.1693 12.0803 10.1927 12.291 10.1483 12.4937L10.1464 12.5025L10.1144 12.6364C10.1143 12.6369 10.1142 12.6374 10.1141 12.6378C10.0719 12.8202 10.0731 12.9404 10.0853 13.0076C10.0868 13.0162 10.0884 13.0234 10.09 13.0294C10.0952 13.029 10.1013 13.0285 10.1083 13.0275C10.1738 13.019 10.2871 12.9839 10.4473 12.8872L10.4555 12.8824L10.6237 12.7854C10.6239 12.7853 10.6241 12.7852 10.6243 12.785C10.816 12.6739 11.0367 12.632 11.2317 12.632C11.4267 12.632 11.6474 12.6739 11.8391 12.7851C11.839 12.785 11.8393 12.7852 11.8391 12.7851L12.015 12.8866C12.1736 12.9817 12.2858 13.0163 12.3508 13.0247C12.3581 13.0257 12.3644 13.0263 12.3699 13.0266C12.3715 13.0204 12.3733 13.0129 12.3749 13.004C12.3875 12.9372 12.3894 12.8177 12.3488 12.636L12.315 12.4938C12.2706 12.291 12.294 12.0803 12.3434 11.9063C12.3929 11.7318 12.4838 11.5406 12.6274 11.3907L12.6346 11.3833L12.8605 11.1574C12.8608 11.1571 12.8612 11.1568 12.8615 11.1565C13.0205 10.9952 13.0294 10.9042 13.0292 10.8834C13.0171 10.8663 12.958 10.8008 12.7431 10.7647L12.4978 10.7259C12.4923 10.7251 12.4868 10.7241 12.4813 10.723C12.293 10.6866 12.1192 10.5969 11.9812 10.4937C11.8436 10.3908 11.7065 10.2482 11.619 10.0733L11.6175 10.0702L11.4359 9.70043C11.4357 9.70018 11.4356 9.69993 11.4355 9.69967C11.3371 9.50131 11.2576 9.45192 11.2317 9.44028C11.2057 9.45192 11.1263 9.50131 11.0279 9.69968ZM11.2317 8.46847C11.7348 8.46847 12.0945 8.84734 12.3041 9.27031L12.3048 9.27177L12.4859 9.6405C12.4904 9.64892 12.5129 9.68147 12.5615 9.71778C12.6065 9.75148 12.6448 9.76653 12.6614 9.77085L12.9005 9.8086C13.3591 9.88503 13.8046 10.122 13.9533 10.5889C14.1015 11.054 13.8777 11.5065 13.5498 11.8384L13.5477 11.8405L13.3259 12.0623C13.3257 12.0625 13.3255 12.0628 13.3252 12.0631C13.3241 12.0645 13.3225 12.0666 13.3205 12.0694C13.3165 12.0751 13.3115 12.083 13.306 12.0934C13.2948 12.1145 13.284 12.1411 13.2755 12.1708C13.2671 12.2005 13.2625 12.2285 13.261 12.2517C13.2597 12.2713 13.261 12.2825 13.2614 12.2857L13.2936 12.4208C13.4037 12.9108 13.3885 13.4962 12.9482 13.8184C12.5068 14.1415 11.9474 13.975 11.5203 13.7197L11.3543 13.624L11.3532 13.6233C11.3431 13.6175 11.3002 13.6009 11.2317 13.6009C11.1631 13.6009 11.1203 13.6175 11.1102 13.6233L11.109 13.624L10.9436 13.7194C10.5139 13.9776 9.95156 14.1457 9.50914 13.82C9.06822 13.4954 9.05701 12.9072 9.17054 12.4176L9.17119 12.4148L9.20193 12.2857C9.20239 12.2825 9.20365 12.2713 9.20238 12.2517C9.20088 12.2285 9.19626 12.2005 9.18782 12.1708C9.1794 12.1411 9.16853 12.1145 9.15733 12.0934C9.15185 12.083 9.14686 12.0751 9.14284 12.0694C9.14087 12.0666 9.13926 12.0645 9.13811 12.0631C9.13788 12.0628 9.13767 12.0625 9.13749 12.0623L8.91357 11.8384C8.58562 11.5065 8.36185 11.054 8.51002 10.5889C8.65871 10.122 9.10424 9.88505 9.56283 9.80862L9.56692 9.80794L9.80971 9.76962C9.81097 9.76928 9.81957 9.76703 9.83493 9.75981C9.85364 9.75101 9.87596 9.73783 9.89891 9.72062C9.92182 9.70344 9.94146 9.68516 9.95634 9.6684C9.96362 9.6602 9.96898 9.65324 9.97269 9.64791C9.97562 9.64369 9.9771 9.64109 9.97756 9.64025L10.1586 9.27177L10.1593 9.27031C10.3688 8.84734 10.7285 8.46847 11.2317 8.46847Z" fill="black"/>
</svg>
