<svg width="14" height="14" viewBox="0 0 14 14" fill="none" xmlns="http://www.w3.org/2000/svg">
<path fill-rule="evenodd" clip-rule="evenodd" d="M5.18668 0.817627C3.73557 0.817627 2.60979 1.10526 1.85746 1.85759C1.10514 2.60991 0.817505 3.73569 0.817505 5.1868V8.56938C0.817505 10.0205 1.10514 11.1463 1.85746 11.8986C2.60979 12.6509 3.73557 12.9385 5.18668 12.9385H8.0055C8.23902 12.9385 8.42833 12.7492 8.42833 12.5157C8.42833 12.2822 8.23902 12.0929 8.0055 12.0929H5.18668C3.81897 12.0929 2.97158 11.8168 2.45544 11.3006C1.9393 10.7845 1.66316 9.93708 1.66316 8.56938V5.1868C1.66316 3.81909 1.9393 2.9717 2.45544 2.45556C2.97158 1.93942 3.81897 1.66329 5.18668 1.66329H8.56926C9.93696 1.66329 10.7844 1.93942 11.3005 2.45556C11.8166 2.9717 12.0928 3.81909 12.0928 5.1868V8.2875C12.0928 8.52102 12.2821 8.71033 12.5156 8.71033C12.7491 8.71033 12.9384 8.52102 12.9384 8.2875V5.1868C12.9384 3.73569 12.6508 2.60991 11.8985 1.85759C11.1461 1.10526 10.0204 0.817627 8.56926 0.817627H5.18668ZM7.27022 3.49537C7.27022 3.27741 7.09353 3.10073 6.87558 3.10073C6.65762 3.10073 6.48093 3.27741 6.48093 3.49537V3.84489H6.05637C5.20501 3.84489 4.51958 4.54352 4.51958 5.38961C4.51958 5.79576 4.61303 6.12776 4.82512 6.38549C5.03132 6.63605 5.30924 6.76565 5.56711 6.85323L6.48093 7.15744V9.1142H6.22179C5.7142 9.1142 5.30098 8.7037 5.30098 8.19339C5.30098 7.97544 5.1243 7.79875 4.90634 7.79875C4.68839 7.79875 4.5117 7.97544 4.5117 8.19339C4.5117 9.14135 5.28003 9.90348 6.22179 9.90348H6.48093V10.2605C6.48093 10.4785 6.65762 10.6552 6.87558 10.6552C7.09353 10.6552 7.27022 10.4785 7.27022 10.2605V9.90348H7.70265C8.55235 9.90348 9.23945 9.21406 9.23945 8.35876C9.23945 7.95536 9.14552 7.62432 8.93459 7.36655C8.72919 7.11554 8.45224 6.98356 8.19192 6.89514L7.27022 6.58832V4.63418H7.53724C8.04483 4.63418 8.45804 5.04467 8.45804 5.55498C8.45804 5.77294 8.63473 5.94962 8.85269 5.94962C9.07064 5.94962 9.24733 5.77294 9.24733 5.55498C9.24733 4.60702 8.479 3.84489 7.53724 3.84489H7.27022V3.49537ZM6.05637 4.63418H6.48093V6.32557L5.81987 6.10551C5.6137 6.03537 5.50198 5.96586 5.43458 5.88395C5.37295 5.80906 5.30886 5.67502 5.30886 5.38961C5.30886 4.97288 5.64743 4.63418 6.05637 4.63418ZM7.27022 9.1142V7.42018L7.93915 7.64287C8.14289 7.71218 8.25556 7.78306 8.32376 7.8664C8.38655 7.94314 8.45017 8.07814 8.45017 8.35876C8.45017 8.78133 8.11327 9.1142 7.70265 9.1142H7.27022ZM11.1071 9.03142C10.9085 9.03142 10.7475 9.1924 10.7475 9.39097V10.7472H9.39131C9.19273 10.7472 9.03175 10.9082 9.03175 11.1068C9.03175 11.3054 9.19273 11.4663 9.39131 11.4663H10.7475V12.8226C10.7475 13.0212 10.9085 13.1821 11.1071 13.1821C11.3057 13.1821 11.4667 13.0212 11.4667 12.8226V11.4663H12.8229C13.0215 11.4663 13.1825 11.3054 13.1825 11.1068C13.1825 10.9082 13.0215 10.7472 12.8229 10.7472H11.4667V9.39097C11.4667 9.1924 11.3057 9.03142 11.1071 9.03142Z" fill="black"/>
</svg>
