<svg width="14" height="14" viewBox="0 0 14 14" fill="none" xmlns="http://www.w3.org/2000/svg">
<path d="M11.0117 8.13346L8.85787 7.05654C8.77309 7.01429 8.67867 6.99515 8.58412 7.00106C8.48958 7.00697 8.39827 7.03772 8.31941 7.09019L7.33066 7.74981C6.87678 7.50029 6.50326 7.12677 6.25374 6.67288L6.91336 5.68413C6.96583 5.60527 6.99658 5.51396 7.00248 5.41942C7.00839 5.32488 6.98926 5.23045 6.94701 5.14567L5.87009 2.99183C5.82545 2.90168 5.75645 2.82584 5.67092 2.77291C5.58539 2.71997 5.48673 2.69205 5.38614 2.69231C4.6721 2.69231 3.9873 2.97596 3.48239 3.48087C2.97749 3.98577 2.69384 4.67057 2.69384 5.38462C2.69562 6.95497 3.32023 8.46049 4.43063 9.5709C5.54104 10.6813 7.04656 11.3059 8.61691 11.3077C8.97047 11.3077 9.32057 11.2381 9.64721 11.1028C9.97386 10.9675 10.2707 10.7691 10.5207 10.5191C10.7707 10.2691 10.969 9.97233 11.1043 9.64569C11.2396 9.31904 11.3092 8.96894 11.3092 8.61539C11.3093 8.51535 11.2815 8.41727 11.2289 8.33215C11.1764 8.24703 11.1012 8.17823 11.0117 8.13346ZM8.61691 10.2308C7.33207 10.2293 6.10026 9.71831 5.19174 8.80979C4.28322 7.90127 3.77218 6.66946 3.77076 5.38462C3.77065 5.01114 3.89997 4.64916 4.13669 4.36029C4.37341 4.07141 4.70291 3.87349 5.06912 3.80019L5.84182 5.34827L5.18422 6.32692C5.13508 6.40064 5.10489 6.48533 5.09632 6.57351C5.08775 6.66168 5.10106 6.75061 5.13509 6.8324C5.52034 7.74805 6.24877 8.47647 7.16441 8.86173C7.24646 8.89727 7.33606 8.91181 7.42513 8.90406C7.5142 8.8963 7.59994 8.86649 7.6746 8.81731L8.65797 8.16173L10.206 8.93442C10.1322 9.30106 9.93339 9.63071 9.64358 9.86712C9.35378 10.1035 8.99091 10.2321 8.61691 10.2308ZM7.00153 1.66705e-07C5.793 -0.000263551 4.60498 0.312367 3.55312 0.907462C2.50126 1.50256 1.62139 2.35984 0.999144 3.39588C0.376901 4.43191 0.0334866 5.61139 0.00232746 6.81952C-0.0288317 8.02765 0.253326 9.22327 0.821336 10.29L0.0573933 12.5818C-0.00588628 12.7716 -0.0150696 12.9752 0.0308726 13.1699C0.0768148 13.3646 0.176067 13.5426 0.317505 13.684C0.458943 13.8255 0.636976 13.9247 0.831652 13.9707C1.02633 14.0166 1.22995 14.0074 1.4197 13.9441L3.71153 13.1802C4.65031 13.6795 5.69052 13.9584 6.75318 13.9957C7.81585 14.033 8.87304 13.8277 9.84452 13.3954C10.816 12.9631 11.6762 12.3152 12.3599 11.5008C13.0436 10.6864 13.5327 9.72696 13.7903 8.6953C14.0478 7.66364 14.0669 6.58687 13.8461 5.54672C13.6254 4.50657 13.1706 3.53038 12.5162 2.69225C11.8618 1.85412 11.0251 1.17608 10.0696 0.709594C9.11409 0.243108 8.06485 0.000436309 7.00153 1.66705e-07ZM7.00153 12.9231C5.96026 12.9238 4.93727 12.6496 4.03595 12.1282C3.96996 12.0899 3.89659 12.0661 3.8207 12.0583C3.74481 12.0505 3.66814 12.059 3.59576 12.0831L1.07845 12.9231L1.91778 10.4058C1.94197 10.3334 1.95052 10.2568 1.94287 10.1809C1.93521 10.105 1.91151 10.0316 1.87336 9.96558C1.22045 8.83677 0.958313 7.52404 1.12761 6.23105C1.2969 4.93806 1.88816 3.73707 2.80966 2.8144C3.73117 1.89173 4.93141 1.29895 6.22419 1.12803C7.51697 0.957099 8.83002 1.21758 9.95965 1.86906C11.0893 2.52053 11.9724 3.52659 12.4719 4.73116C12.9714 5.93573 13.0594 7.27147 12.7223 8.53118C12.3852 9.79088 11.6418 10.9041 10.6074 11.6982C9.57307 12.4923 8.30556 12.9229 7.00153 12.9231Z" fill="black"/>
</svg>
